/* XPM */
static char * fmslogo_48x48_xpm[] = {
"48 48 288 2",
"  	c None",
". 	c #FFFFFF",
"+ 	c #FEFEFE",
"@ 	c #CDCDCD",
"# 	c #A1A1A1",
"$ 	c #A4A4A4",
"% 	c #A3A3A3",
"& 	c #9F9F9F",
"* 	c #ECECEC",
"= 	c #A5A5A5",
"- 	c #000000",
"; 	c #090909",
"> 	c #070707",
", 	c #303030",
"' 	c #FBFBFB",
") 	c #FDFDFD",
"! 	c #616161",
"~ 	c #D9D9D9",
"{ 	c #CFCFCF",
"] 	c #D0D0D0",
"^ 	c #CECECE",
"/ 	c #E2E2E2",
"( 	c #5A5A5A",
"_ 	c #2E2E2E",
": 	c #868686",
"< 	c #595959",
"[ 	c #979797",
"} 	c #5E5E5E",
"| 	c #787878",
"1 	c #939393",
"2 	c #484848",
"3 	c #3A3A3A",
"4 	c #7B7B7B",
"5 	c #818181",
"6 	c #6E6E6E",
"7 	c #E6E6E6",
"8 	c #BABABA",
"9 	c #606060",
"0 	c #ADADAD",
"a 	c #646464",
"b 	c #6F6F6F",
"c 	c #DDDDDD",
"d 	c #CCCCCC",
"e 	c #060606",
"f 	c #5F5F5F",
"g 	c #5C5C5C",
"h 	c #666666",
"i 	c #2F2F2F",
"j 	c #E8E8E8",
"k 	c #232323",
"l 	c #F7F7F7",
"m 	c #E1E1E1",
"n 	c #525252",
"o 	c #F8F8F8",
"p 	c #E7E7E7",
"q 	c #151515",
"r 	c #707070",
"s 	c #BFBFBF",
"t 	c #DEDEDE",
"u 	c #F2F2F2",
"v 	c #F5F5F5",
"w 	c #7F7F7F",
"x 	c #B5B5B5",
"y 	c #FEFEFF",
"z 	c #F6F7FF",
"A 	c #99A0FF",
"B 	c #D7D9FF",
"C 	c #EAEBFF",
"D 	c #4955FF",
"E 	c #AEB4FF",
"F 	c #EDEEFE",
"G 	c #FCFCFF",
"H 	c #E6E7FF",
"I 	c #DFE2FF",
"J 	c #F3F4FF",
"K 	c #2D2D2D",
"L 	c #9199FE",
"M 	c #2A38FF",
"N 	c #4451FF",
"O 	c #757EFE",
"P 	c #989FFF",
"Q 	c #4552FE",
"R 	c #6D77FE",
"S 	c #535FFE",
"T 	c #DCDEFF",
"U 	c #F0F1FF",
"V 	c #545FFE",
"W 	c #B9BEFF",
"X 	c #F7F7FF",
"Y 	c #D7DAFE",
"Z 	c #4D59FE",
"` 	c #DEE0FF",
" .	c #8B93FE",
"..	c #6C76FE",
"+.	c #B8BDFF",
"@.	c #FFFFFE",
"#.	c #BDC2FE",
"$.	c #5B67FE",
"%.	c #F4F5FF",
"&.	c #BABFFF",
"*.	c #5662FE",
"=.	c #F1F3FF",
"-.	c #EFF1FE",
";.	c #5560FE",
">.	c #BEC2FE",
",.	c #C2C6FE",
"'.	c #5965FE",
").	c #F5F6FF",
"!.	c #B5BBFF",
"~.	c #5663FE",
"{.	c #FBFAFF",
"].	c #4D5AFE",
"^.	c #969DFE",
"/.	c #EBECFE",
"(.	c #3C4AFE",
"_.	c #C0C4FF",
":.	c #5A65FE",
"<.	c #8B93FF",
"[.	c #D9DBFF",
"}.	c #3B4AFE",
"|.	c #1222FD",
"1.	c #CFD2FF",
"2.	c #2A38FE",
"3.	c #1A2AFF",
"4.	c #6D78FF",
"5.	c #FFFEFE",
"6.	c #FDFFFF",
"7.	c #7B7C7C",
"8.	c #FEFFFF",
"9.	c #FFE7E7",
"0.	c #FE1717",
"a.	c #FF8888",
"b.	c #FEAAAA",
"c.	c #FD2525",
"d.	c #FD8686",
"e.	c #667171",
"f.	c #5C5555",
"g.	c #FFD9D9",
"h.	c #FDF8F8",
"i.	c #FEF2F2",
"j.	c #FEC7C7",
"k.	c #FFC4C4",
"l.	c #FFBFBF",
"m.	c #FE4040",
"n.	c #FE4545",
"o.	c #FFF0F0",
"p.	c #FFFAFA",
"q.	c #FEBFBF",
"r.	c #FE9393",
"s.	c #FFD8D8",
"t.	c #FED5D5",
"u.	c #FE9090",
"v.	c #FED6D6",
"w.	c #FEEFEF",
"x.	c #FF8484",
"y.	c #FE7474",
"z.	c #6D4545",
"A.	c #2E2F2F",
"B.	c #7B8A8A",
"C.	c #FF7676",
"D.	c #FD1515",
"E.	c #FFE6E6",
"F.	c #FEC3C3",
"G.	c #FD1A1A",
"H.	c #FF8787",
"I.	c #FF7575",
"J.	c #FEE4E4",
"K.	c #FF7474",
"L.	c #FF8E8E",
"M.	c #FD4A4A",
"N.	c #FFF3F3",
"O.	c #FE6969",
"P.	c #FE5959",
"Q.	c #FE9D9D",
"R.	c #FE1010",
"S.	c #FECBCB",
"T.	c #FEB2B2",
"U.	c #FD1E1E",
"V.	c #FE9F9F",
"W.	c #FE1C1C",
"X.	c #FFAFAF",
"Y.	c #FE8989",
"Z.	c #FE9999",
"`.	c #FE6464",
" +	c #6B5656",
".+	c #7B8181",
"++	c #FE5353",
"@+	c #FE5A5A",
"#+	c #FEC5C5",
"$+	c #FD3A3A",
"%+	c #FFF7F7",
"&+	c #FFD5D5",
"*+	c #FFF8F8",
"=+	c #FE1414",
"-+	c #FEA2A2",
";+	c #FE3131",
">+	c #FE2424",
",+	c #FED0D0",
"'+	c #FFCECE",
")+	c #FF2424",
"!+	c #FED3D3",
"~+	c #FDE6E6",
"{+	c #666969",
"]+	c #5C5D5D",
"^+	c #FD2121",
"/+	c #FE4949",
"(+	c #FFC9C9",
"_+	c #FE2E2E",
":+	c #FF2222",
"<+	c #FED9D9",
"[+	c #FFFDFD",
"}+	c #FE1616",
"|+	c #FE8D8D",
"1+	c #FF2323",
"2+	c #FFF2F2",
"3+	c #FE1D1D",
"4+	c #FD6C6C",
"5+	c #FE4C4C",
"6+	c #FEF4F4",
"7+	c #FEF3F3",
"8+	c #FEAFAF",
"9+	c #FE2A2A",
"0+	c #FF8B8B",
"a+	c #FE2C2C",
"b+	c #FF7D7D",
"c+	c #FF2626",
"d+	c #FF1818",
"e+	c #FFF5F5",
"f+	c #FD1D1D",
"g+	c #FDF0F0",
"h+	c #FE3939",
"i+	c #FE1919",
"j+	c #FE0F0F",
"k+	c #FE0D0D",
"l+	c #FE1313",
"m+	c #FEDDDD",
"n+	c #FFDADA",
"o+	c #FFB5B5",
"p+	c #FE2B2B",
"q+	c #FFEEEE",
"r+	c #FFE5E5",
"s+	c #FE1B1B",
"t+	c #FF5454",
"u+	c #FFE8E8",
"v+	c #FFE4E4",
"w+	c #FFEBEB",
"x+	c #FF9595",
"y+	c #FF3838",
"z+	c #FFE9E9",
"A+	c #FF1C1C",
"B+	c #FFC5C5",
"C+	c #FF6E6E",
"D+	c #FF5757",
"E+	c #FFFBFB",
"F+	c #FF5656",
"G+	c #FF7070",
"H+	c #676767",
"I+	c #D0C7C7",
"J+	c #D66767",
"K+	c #D0C1C1",
"L+	c #CFD1D1",
"M+	c #D08989",
"N+	c #E24848",
"O+	c #EA5050",
"P+	c #D93E3E",
"Q+	c #CFBFBF",
"R+	c #CFD0D0",
"S+	c #CFD7D7",
"T+	c #D86464",
"U+	c #E94B4B",
"V+	c #E34141",
"W+	c #D17373",
"X+	c #CFDADA",
"Y+	c #CFD8D8",
"Z+	c #D34848",
"`+	c #EB4646",
" @	c #CFDDDD",
".@	c #545454",
"+@	c #DFDFDF",
"@@	c #090707",
"#@	c #070808",
"$@	c #0C0404",
"%@	c #0D0202",
"&@	c #070909",
"*@	c #080909",
"=@	c #0E0202",
"-@	c #333333",
";@	c #AFAFAF",
". . . . . . . . . . . . . . . . . . . . . . . . . . . . . . . . . . . . . . . . . . . . + . + . ",
". . . . . . . . . . . . . . . . . . . . . + + . . . . . . . . . . . . . . . . . . . . . . + . . ",
". . . . . . . . . . . . . . . . . . . . + + . @ # $ % $ $ $ $ $ $ $ $ $ $ $ $ $ $ $ % & * . . . ",
". . . . . . . . . . . . + . + . . + + . + . = - ; > > > > > > > > > > > > > > > > > ; - , . . . ",
". . . . . . . . . . . . + ' . ) + . . + . = - ! ~ { { { { { { { { { { { { { { ] ^ / ( - _ . . . ",
". . . . . . . . . . . . . : < . ) + + . [ - } ) . . . . . . . . . . . . . . . . . } - - , . . . ",
". . . . . . . . . . . . . | 1 2 + + . = - 3 . + . + . . . . . . . . . . . + ) . 4 - } 5 _ . . . ",
". . . . . . . . . . . . . 6 7 8 9 . 0 - } . + + + . . . . . . . . . . + + ) . 4 - 4 . a _ . . . ",
". . . . . . . . . . . . . b c + d _ e f ) + + . . . . . . . . . . . + . ) . g - 4 . ) h i . . . ",
". . . . . . . . . . . . . b c + . j k l . + . + . . . . . . . . . . + ) . 4 - g . ) ) h _ . . . ",
". . . . . . . . . . . . . b c . + . m n o + + . . . . . . . . . + + ) . 4 - 4 . ) + ) h _ . . . ",
". . . . . . . . . . . . . b c + . + . p q . + + . . . . . . . + . ) . g - 4 . ) + . ) h _ . . . ",
". . . . . . . . . . . . . r s c c c c t u - v . . . . . . . . + ) . 4 - g . ) . + . ) h i . . . ",
". . . . . . . . . . . . . s r b b b b b 6 w x . . . . . . + + ) . 4 - 4 . ) + + . . ) h _ . . . ",
". . . . . . . . . . . . + . . . . . . . . . . + . . . . + . ) . g - 4 . ) + . . . . ) h _ . . . ",
". . . . . . . . . . . . . . . . . . . . . . . . . . . . + ) . 4 - g . ) . + . . . . ) h _ . . . ",
". y . . . y . . . . . . . . . . . . . . . . . . . . + + ) . 4 - 4 . ) + + . . . . . ) h _ . . . ",
". . z A B . . . y . y . y . . . . . . . . . . . . + . ) . g - 4 . ) + . . . . . . . ) h i . . . ",
". . C D E F y G H I J + . . . . . . . . . . . . . + ) . 4 - g . ) . + . . . . . . . ) h K . . . ",
". . L M N O G P Q R S T . y . . . . . . . . . + + ) . 4 - 4 . ) + + . . . . . . . . ) h i . . . ",
". . U V W X Y Z ` +  .... . . . . . . . . . + . ) . g - 4 . ) + . . . . . . . . . . ) h _ . . . ",
". . U S +.@.#.$.%.@.&.*.=.. . . . . . . . . + ) . 4 - g . ) . + . . . . . . . . . . ) h _ . . . ",
". . -.;.>.. ,.'.).. !.~.X . . . . . . . + + ) . 4 - 4 . ) + + . . . . . . . . . . . ) h i . . . ",
". . {.].^.. /.(._.@.:.<.@.. . . . . . + . ) . g - 4 . ) + . . . . . . . . . . . . . ) h K . . . ",
". y . [.}.|.y 1.2.3.4.G y . . . . . . + ) . 4 - g . ) . + . . . . . . . . . . . . . ) h i . . . ",
". . y @.. . @.@.. @.. . . . . . . + + ) . 4 - 4 . ) + + . . . . . . . . . . . . . . ) h _ . . . ",
". y . y . . . . . . y . . . . . + . ) . g - 4 . ) + . . . . . . . . . . . . . . . . ) h _ . . . ",
". . . . . . . . . . . . . . . . + ) . 4 - g . ) . + . . . . . . . . . . . . . . . . ) h _ . . . ",
". . . . . . . . . . . . . . + + ) . 4 - 4 . ) + + . . . . . . . . . . . . . . . . . ) h _ . . . ",
". . . . . . . . . . . . . + . ) . g - 4 . ) + . . . . . . . . . . . . . . . . . . . ) h i . . . ",
". . . . . . . . . . . . . + ) . 4 - g . ) . + . . . . . . . . . . . . . . . . . . . ) h _ . . . ",
". . . . . . . . . . . + + ) . 4 - 4 . ) + + . . . . . . . . . . . . . . . . . . . . ) h _ . . . ",
". . . . . . . . . . + . ) . g - 4 . ) + . . . . . . . . . . . . . . . . . . . . . . ) h _ . . . ",
". . . . . . . . . . + ) . 4 - g . ) . + . . . . . . . . . . . . . . . . . . . . . . ) h i . . . ",
". . . . . . . . + + ) . 4 - 4 . ) + + . 5.. . . 5.. . . . . . . . . . . . . 5.+ . . 6.h _ . . . ",
". . . . . . . + . ) . g - 7.. ) 8.. . . 8.9.0.a.. 5.. . . 5.. . . . . 5.. . . . b.c.d.e._ . . . ",
". . . . . . . + ) . 4 - f.g.h.. i.j.k.l.5.m.. n.o.. . . 8.p.q.r.s.. + . t.u.v.w.x.. y.z.A.. . . ",
". . . . . + + ) . 4 - B.C.D.E.. F.G.H.I.J.K.L.M.N.. . 5.. O.P.Q.R.S.. T.U.V.W.X.Y.Z.`. +_ . . . ",
". . . . + . ) . g - .+X.++@+E.. #+$+. . . %+&+J.. . . . *+=+. . -+;+. >+,+. '+)+8.!+~+{+i . . . ",
". . . . + ) . 4 - ]+. ^+8./+E.8.(+_+:+>+<+8.. . . 5.. . [+}+5.. |+1+. 0.. . 2+3+. . ) h K . . . ",
". . + + ) . 4 - 4 . 4+g.+ 5+6+5.7+[+. 8+9+. . . . . . 5.8.0+a+b+5+c+8.d+8.. e+f+. . ) h i . . . ",
". + . ) . g - 4 . g+h+d+i+j+k+. . 5.8.e+l+. . . . . . . . . m+n+o+p+. i+q+. r+s+. . ) h _ . . . ",
". + ) . 4 - } . . . . . . t+e+5.u+v+w+x+y+. . . . . . . . z+u+N.A+B+. C+D+E+F+G+. . + H+_ . . . ",
". + . 4 - ( / ^ { { { { I+J+K+L+M+N+O+P+Q+R+{ { { { { { S+T+U+V+W+X+{ Y+Z+`+Z+ @{ { { .@K . . . ",
"+ . +@- - ; > > > > > > > @@> > #@$@%@@@#@> > > > > > > > @@%@$@&@> > > *@=@*@> > > > - -@. . . ",
". + . ;@% $ $ $ % $ $ $ $ $ $ $ $ $ $ $ $ $ $ $ % $ $ $ $ % $ $ $ $ $ $ $ $ $ $ $ $ $ # l + . . ",
". + + . . . . . . . . . . . . . . . . . . . . . . . . . . . . . . . . . . . . . . . . . . + . . ",
"+ . . + . . . . . . . . . . . . . . . . . . . . . . . . . . . . . . . . . . . . . . . . + . + . "};
