/* XPM */
static char * fmslogo_40x40_xpm[] = {
"40 40 114 2",
"  	c None",
". 	c #FFFFFF",
"+ 	c #EAEAE6",
"@ 	c #66664F",
"# 	c #929281",
"$ 	c #56563C",
"% 	c #3F3F22",
"& 	c #D7D7D0",
"* 	c #D6D6D0",
"= 	c #252504",
"- 	c #3C3C1F",
"; 	c #595940",
"> 	c #39391B",
", 	c #4C4C31",
"' 	c #404023",
") 	c #262605",
"! 	c #6C6C56",
"~ 	c #73735E",
"{ 	c #5B5B42",
"] 	c #454529",
"^ 	c #2D2D0D",
"/ 	c #E5E5E1",
"( 	c #424225",
"_ 	c #B2B2A7",
": 	c #57573D",
"< 	c #373719",
"[ 	c #323213",
"} 	c #6F6F59",
"| 	c #6B6B54",
"1 	c #2C2C0C",
"2 	c #58583E",
"3 	c #F5F5F3",
"4 	c #8D8D7B",
"5 	c #F4F4F2",
"6 	c #FCFCFB",
"7 	c #F6F6F6",
"8 	c #FEFEFE",
"9 	c #0D1EFF",
"0 	c #B7BCFF",
"a 	c #2131FF",
"b 	c #B8BDFF",
"c 	c #FBFBFB",
"d 	c #2F3DFF",
"e 	c #303EFF",
"f 	c #FBFBFA",
"g 	c #F4F4F4",
"h 	c #0F20FF",
"i 	c #F9F9FF",
"j 	c #F8F8FF",
"k 	c #1021FF",
"l 	c #1122FF",
"m 	c #E7E8FF",
"n 	c #B9BEFF",
"o 	c #737DFF",
"p 	c #1525FF",
"q 	c #B5BBFF",
"r 	c #2030FF",
"s 	c #B6BBFF",
"t 	c #FDFDFD",
"u 	c #FF7171",
"v 	c #FF1616",
"w 	c #FF7474",
"x 	c #FD7372",
"y 	c #FF1515",
"z 	c #FFCDCD",
"A 	c #FE1616",
"B 	c #FFDBDB",
"C 	c #FF0F0F",
"D 	c #FF0D0D",
"E 	c #FF6F6F",
"F 	c #FF8C8C",
"G 	c #FF1C1C",
"H 	c #FF2626",
"I 	c #FFC5C5",
"J 	c #FFC1C1",
"K 	c #FF2323",
"L 	c #FD706F",
"M 	c #FF6262",
"N 	c #FF4040",
"O 	c #FF3E3E",
"P 	c #FFB3B3",
"Q 	c #FFD6D6",
"R 	c #FF2222",
"S 	c #FF1717",
"T 	c #FF2828",
"U 	c #FFB2B2",
"V 	c #FF7E7E",
"W 	c #FF5D5D",
"X 	c #FF1313",
"Y 	c #FFF8F8",
"Z 	c #FF5B5B",
"` 	c #FF8F8F",
" .	c #FFFBFB",
"..	c #FF1F1F",
"+.	c #FFC9C9",
"@.	c #FFFCFC",
"#.	c #FFB7B7",
"$.	c #FFF2F2",
"%.	c #FF5353",
"&.	c #FF5858",
"*.	c #FFAFAF",
"=.	c #FF1010",
"-.	c #FF4C4C",
";.	c #FFE7E7",
">.	c #4D4D32",
",.	c #2B2B0B",
"'.	c #767662",
").	c #444427",
"!.	c #272706",
"~.	c #5A5A41",
"{.	c #C8C8C0",
"].	c #272707",
"^.	c #606048",
"/.	c #868674",
". . . . . . . . . . . . . . . . . . . . . . . . . . . . . . . . . . . . . + . . ",
". . . . . . . . . . . . . . . . . + @ # # # # # # # # # # # # # # # # # $ % & . ",
". . . . . . . . . . . . . . . . * % = = = = = = = = = = = = = = = = = = = = - + ",
". . . . . = . . . . . . . . . * ; > , # # # # # # # # # # # # # # # # ' = ) ! + ",
". . . . . = = . . . . . . . * ; > ~ . . . . . . . . . . . . . . . . { = ] ^ ! + ",
". . . . . = . = . . . . . * ; > ~ . . . . . . . . . . . . . . . . { = { / ( ! + ",
". . . . . = . . = . . . _ : > ~ . . . . . . . . . . . . . . . . { = { . . ( ! + ",
". . . . . = . . . = . _ < [ } . . . . . . . . . . . . . . . . { = { . . . ^ ! + ",
". . . . . = . . . . = | 1 2 3 . . . . . . . . . . . . . . . { = { . . . . ^ ! + ",
". . . . . = . . . . . = 4 5 . . . . . . . . . . . . . . . { = { . . . . . ^ ! + ",
". . . . . = . . . . . . = . . . . . . . . . . . . . . . { = { . . . . . . ^ ! + ",
". . . . . = . . . . . . . = . . . . . . . . . . . . . { = { . . . . . . 6 ^ ! + ",
". . . . . = . . . . . . . . = . . . . . . . . . . . { = { . . . . . . . 6 ^ ! + ",
". . . . . = . . . . . . . . . = . . . . . . . 7 . { = { . . . . . . . . 6 ^ ! + ",
". . . . . = = = = = = = = = = = = . . . . . . . { = { . . . . . . . . . 6 ^ ! + ",
". . . . . . . . 8 . . . . . . . . . . . . . . { = { . . . . . . . . . . 6 ^ ! + ",
". . . . . . . . . . . . . . . . . . . . . . { = { . . . . . . . . . . . 6 ^ ! + ",
". . . . . . . . . . . . . . . . . . . . . { = { . . . . . . . . . . . . . ^ ! + ",
". . . 9 . . . . . . . . . . . . . . . . { = { . . . . . . . . . . . . . . ^ ! + ",
". . 9 9 9 9 . 0 a a b . . . . . . 8 . { = { . . . . . . . . . . . . . . c ^ ! + ",
". . . 9 . . . d 0 0 e . . . . . c . { = { . . . . . . . . . . . . . . . f ^ ! + ",
"g . . 9 . . . h i j k . . . . . . { = { . . . . . . . . . . . . . . . . f ^ ! + ",
". . . l m . . d n 0 d . . . . . { = { . . . . . . . . . . . . . . . . . . ^ ! + ",
". . . o p 9 . q r r s . . . . { = { . . . . . . . . . . . . . . . . . . . ^ ! + ",
". . . . . . . . . . . . . . { = { . . . . . . . . . . . . . . . . . . . . ^ ! + ",
". . . . . . . . . . . . . { = { . . . . . . . . . . . . . . . . . . . . t ^ ! + ",
". . . . . . . . . . . . { = { . . . . . . . . . . . . . . . . . . . . . 6 ^ ! + ",
". . . . . . . . . . . { = { . . . . . . . . . . . . . . . . . . . . . . 6 ^ ! + ",
". . . . . . . . . . { = { . . . . . . . u v w . . . . . . . . . . . u v x ^ ! + ",
". . . . . . . . . { = { . . . . . . . . y z v . . . . . . . . . . . y z A ^ ! + ",
". . . . . . . . { = { B C . . D D D D . E y u . F G H I . J K K J . E y L ^ ! + ",
". . . . . . . { = { . M D . . D . . . . . . . . y z z N . O P P O . . . 6 ^ ! + ",
". . . . . . { = { . Q R D . . D S T U . . . . . V S W X . X Y Y X . . . 6 ^ ! + ",
". . . . . { = { . . Z ` D . . .  .P ... . . . . . . +.S . X Y Y X . . . 6 ^ ! + ",
". . . . { = { . . . D D D D . . @.#.... . . . . . $.%.&.. O P P O . . . 6 ^ ! + ",
". . . { = { . . . . . . D . . D D T *.. . . . . D =.-.;.. J R R J . . . t ^ ! + ",
". . >.= >.. . . . . . . . . . . . . . . . . . . . . . . . . . . . . . . . ,.! + ",
". '.= ^ ).).).).).).).).).).).).).).).).).).).).).).).).).).).).).).).).< !.~.+ ",
". {.> ).).).).).).).).).).).).).).).).).).).).).).).).).).).).).).).).).< ].^.+ ",
". . {.{.{.{.{.{.{.{.{.{.{.{.{.{.{.{.{.{.{.{.{.{.{.{.{.{.{.{.{.{.{.{.{.{.{./.+ . "};
