/* XPM */
static char * fmslogo_24x24_xpm[] = {
"24 24 7 1",
" 	c None",
".	c #FFFFFF",
"+	c #000000",
"@	c #0D1EFF",
"#	c #808080",
"$	c #F6F7FF",
"%	c #FF0D0D",
"........................",
"......................+.",
".....................++.",
"..@.........#.......+.+.",
"..@.........##.....+..+.",
"@@@@@.......#.#...+...+.",
"..@....@@...#..#.+....+.",
"..@...@..@..#...#.....+.",
"..@...@..@..#....#....+.",
"..@...@..@..#.....#...+.",
"...@@..@@$..#......#..+.",
"............#########.+.",
"......................+.",
"......................+.",
"......................+.",
"........+.............+.",
".......+..............+.",
"......+..........%%%%%+.",
".....+...........%....+.",
"....+............%....+.",
"...+.............%....+.",
"..+..............%....+.",
".++++++++++++++++++++++.",
"........................"};
