/* XPM */
static char * fmslogo_20x20_xpm[] = {
"20 20 7 1",
" 	c None",
".	c #FFFFFF",
"+	c #000000",
"@	c #0D1EFF",
"#	c #868EFF",
"$	c #808080",
"%	c #FF0D0D",
"....................",
"..................+.",
"..@..............++.",
"#@@@#.@.........+.+.",
"..@..@.@..$....+..+.",
"..@..@.@..$$..+...+.",
"..@..@.@..$.$+....+.",
"...@..@...$..$....+.",
"..........$...$...+.",
"..........$$$$$$..+.",
"..................+.",
"..................+.",
".......+..........+.",
"......+...........+.",
".....+........%%%%+.",
"....+.........%...+.",
"...+..........%...+.",
"..+...........%...+.",
".++++++++++++++++++.",
"...................."};
