/* XPM */
static char * fmslogo_xpm[] = {
"32 32 6 1",
" 	c None",
".	c #000000",
"+	c #FFFFFF",
"@	c #808080",
"#	c #0000FF",
"$	c #FF0000",
"................................",
".++++++++++++++++++++++++++++++.",
".++++++++++++++++.............+.",
".+++++++@+++++++.+++++++++++..+.",
".+++++++@@+++++.+++++++++++.+.+.",
".+++++++@+@+++.+++++++++++.++.+.",
".+++++++@++@+.+++++++++++.+++.+.",
".+++++++@+++@+++++++++++.++++.+.",
".+++++++@++++@+++++++++.+++++.+.",
".+++++++@+++++@+++++++.++++++.+.",
".+++++++@++++++@+++++.+++++++.+.",
".+++++++@@@@@@@@@+++.++++++++.+.",
".+#++++++++++++++++.+++++++++.+.",
".+#+++++++++++++++.++++++++++.+.",
".+##++###++++++++.+++++++++++.+.",
".+#++#+++#++++++.++++++++++++.+.",
".+#++#+++#+++++.+++++++++++++.+.",
".+#++#+++#++++.++++++++++++++.+.",
".+#++#+++#+++.+++++++++++++++.+.",
".++#++###+++.++++++++++++++++.+.",
".++++++++++.+++$+++++++++++$+.+.",
".+++++++++.+++$+$+++++++++$+$.+.",
".++++++++.+++++$+++++++++++$+.+.",
".+++++++.$++$$$+++++$$+++$$++.+.",
".++++++.$$++$++++++$++$+$++$+.+.",
".+++++.+$$++$$++++++$$$+$++$+.+.",
".++++.+$+$++++$+++++++$+$++$+.+.",
".+++.++$$$$+++$++++$++$+$++$+.+.",
".++.+++++$++$$++++++$$+++$$++.+.",
".+............................+.",
".++++++++++++++++++++++++++++++.",
"................................"};
