/* XPM */
static const char * fmslogo_64x64_xpm[] = {
"64 64 264 2",
"  	c #FFFFFF",
". 	c #FEFEFE",
"+ 	c #B0B0B0",
"@ 	c #8D8D8D",
"# 	c #8E8E8E",
"$ 	c #8F8F8F",
"% 	c #ECECEC",
"& 	c #686868",
"* 	c #000000",
"= 	c #4F4F4F",
"- 	c #979797",
"; 	c #909090",
"> 	c #9B9B9B",
", 	c #404040",
"' 	c #D9D9D9",
") 	c #F2F2F2",
"! 	c #292929",
"~ 	c #444444",
"{ 	c #5F5F5F",
"] 	c #F3F3F3",
"^ 	c #242424",
"/ 	c #181818",
"( 	c #060606",
"_ 	c #939393",
": 	c #3C3C3C",
"< 	c #262626",
"[ 	c #EAEAEA",
"} 	c #919191",
"| 	c #3A3A3A",
"1 	c #DBDBDB",
"2 	c #454545",
"3 	c #929292",
"4 	c #2C2C2C",
"5 	c #797979",
"6 	c #434343",
"7 	c #0E0E0E",
"8 	c #020202",
"9 	c #C7C7C7",
"0 	c #E7E7E7",
"a 	c #DADADA",
"b 	c #D1D1D1",
"c 	c #F7F7F7",
"d 	c #DCDCDC",
"e 	c #F4F4F4",
"f 	c #F8F8F8",
"g 	c #F1F1F1",
"h 	c #FDFDFD",
"i 	c #EEEFFF",
"j 	c #8C94FF",
"k 	c #A4AAFF",
"l 	c #FBFBFF",
"m 	c #EDEEFF",
"n 	c #5863FF",
"o 	c #7D86FF",
"p 	c #FDFDFF",
"q 	c #FEFEFF",
"r 	c #757FFF",
"s 	c #2A39FF",
"t 	c #303EFF",
"u 	c #4B57FF",
"v 	c #717AFE",
"w 	c #F2F3FF",
"x 	c #B2B7FF",
"y 	c #2534FF",
"z 	c #0D1EFF",
"A 	c #4955FF",
"B 	c #DBDDFF",
"C 	c #9FA5FF",
"D 	c #3C48FF",
"E 	c #4C58FF",
"F 	c #8891FF",
"G 	c #ADB3FF",
"H 	c #A5ABFF",
"I 	c #1829FF",
"J 	c #9199FF",
"K 	c #F5F5FF",
"L 	c #646FFE",
"M 	c #2030FF",
"N 	c #CBCEFF",
"O 	c #5D68FE",
"P 	c #828BFF",
"Q 	c #E6E8FF",
"R 	c #4D59FE",
"S 	c #7680FF",
"T 	c #515DFE",
"U 	c #717AFF",
"V 	c #F8F9FF",
"W 	c #5965FE",
"X 	c #7C85FF",
"Y 	c #F4F4FF",
"Z 	c #D5D8FF",
"` 	c #3C4AFF",
" .	c #9AA1FF",
"..	c #F7F8FF",
"+.	c #7882FF",
"@.	c #5E69FF",
"#.	c #E8EAFF",
"$.	c #5965FF",
"%.	c #3B48FE",
"&.	c #9CA3FF",
"*.	c #7A83FF",
"=.	c #5D69FE",
"-.	c #E5E7FF",
";.	c #5B66FF",
">.	c #8089FE",
",.	c #F6F7FF",
"'.	c #DFE1FF",
").	c #4956FE",
"!.	c #848DFF",
"~.	c #F1F2FF",
"{.	c #5F6BFF",
"].	c #6974FF",
"^.	c #F3F4FF",
"/.	c #F3F3FF",
"(.	c #616DFF",
"_.	c #D4D7FF",
":.	c #C7CBFF",
"<.	c #9BA2FF",
"[.	c #2432FF",
"}.	c #AEB4FF",
"|.	c #DEE0FF",
"1.	c #5561FF",
"2.	c #0C1EFE",
"3.	c #1121FE",
"4.	c #737DFF",
"5.	c #0D1DFE",
"6.	c #1729FF",
"7.	c #A4ABFF",
"8.	c #FCFCFF",
"9.	c #FFF5F5",
"0.	c #FF2222",
"a.	c #FF1717",
"b.	c #FF8A8A",
"c.	c #FFFEFE",
"d.	c #FE3737",
"e.	c #FE1A1A",
"f.	c #FF6060",
"g.	c #FFE6E6",
"h.	c #FFF0F0",
"i.	c #FFE0E0",
"j.	c #FFE1E1",
"k.	c #FFDFDF",
"l.	c #FE4444",
"m.	c #FFE2E2",
"n.	c #FF3535",
"o.	c #FFE7E7",
"p.	c #FFABAB",
"q.	c #FFB7B7",
"r.	c #FFAFAF",
"s.	c #FFB1B1",
"t.	c #FF7676",
"u.	c #FFAEAE",
"v.	c #FF6F6F",
"w.	c #E69999",
"x.	c #FFE3E3",
"y.	c #FF0D0D",
"z.	c #FF3636",
"A.	c #FE8080",
"B.	c #FE0C0C",
"C.	c #FF1C1C",
"D.	c #FF1A1A",
"E.	c #FF0E0E",
"F.	c #FFDDDD",
"G.	c #FF3232",
"H.	c #FE6060",
"I.	c #FFD3D3",
"J.	c #FFA8A8",
"K.	c #FE4242",
"L.	c #FF2424",
"M.	c #FF1313",
"N.	c #FFF1F1",
"O.	c #FE0D0D",
"P.	c #FF3333",
"Q.	c #FE2F2F",
"R.	c #FF5B5B",
"S.	c #FFA7A7",
"T.	c #EA8080",
"U.	c #FF1616",
"V.	c #FE5B5B",
"W.	c #FF3C3C",
"X.	c #FE8484",
"Y.	c #FE3B3B",
"Z.	c #FFCCCC",
"`.	c #FF4242",
" +	c #FE4646",
".+	c #FFB8B8",
"++	c #FE6969",
"@+	c #FE4747",
"#+	c #FE5151",
"$+	c #FF4E4E",
"%+	c #FF4545",
"&+	c #FFFDFD",
"*+	c #FE1111",
"=+	c #FE4D4D",
"-+	c #FF2727",
";+	c #FF8888",
">+	c #FF6565",
",+	c #FF9292",
"'+	c #FF3939",
")+	c #FE8383",
"!+	c #FE3D3D",
"~+	c #FFFCFC",
"{+	c #FFECEC",
"]+	c #FF9999",
"^+	c #FE1414",
"/+	c #FFD0D0",
"(+	c #FFEAEA",
"_+	c #FF7F7F",
":+	c #FFB9B9",
"<+	c #FF3A3A",
"[+	c #FFCECE",
"}+	c #FFEBEB",
"|+	c #FFFBFB",
"1+	c #FF6D6D",
"2+	c #FF7070",
"3+	c #FFF7F7",
"4+	c #FEA8A8",
"5+	c #FF3737",
"6+	c #FE7F7F",
"7+	c #FE3838",
"8+	c #FFB4B4",
"9+	c #FE0F0F",
"0+	c #FF0F0F",
"a+	c #FF8D8D",
"b+	c #FF8686",
"c+	c #FF0C0C",
"d+	c #FF9E9E",
"e+	c #FFD2D2",
"f+	c #FF9090",
"g+	c #FF3D3D",
"h+	c #FF5858",
"i+	c #FE2C2C",
"j+	c #FF4141",
"k+	c #FF5757",
"l+	c #FF5555",
"m+	c #232323",
"n+	c #FE7D7D",
"o+	c #FF2F2F",
"p+	c #FF4040",
"q+	c #FF2626",
"r+	c #FFE4E4",
"s+	c #FF5353",
"t+	c #FF5959",
"u+	c #FE4141",
"v+	c #FFF6F6",
"w+	c #DFDFDF",
"x+	c #9C9C9C",
"y+	c #988585",
"z+	c #9C7E7E",
"A+	c #958888",
"B+	c #B56363",
"C+	c #BE5959",
"D+	c #B26565",
"E+	c #A17878",
"F+	c #BA5D5D",
"G+	c #A47676",
"H+	c #918C8C",
"I+	c #BB5C5C",
"J+	c #908D8D",
"K+	c #7A7A7A",
"L+	c #CACACA",
"M+	c #535353",
"N+	c #A2A2A2",
"O+	c #949494",
"                                                                                                                                ",
"                                                                                                                                ",
"                                                          . .                                                           .       ",
"                                                          .   + @ # $ # $ $ $ $ $ $ # $ $ $ $ $ $ # $ $ $ $ $ $ # $ # %         ",
"                                                        .   & * * * * * * * * * * * * * * * * * * * * * * * * * * * * =         ",
"                                  .   .               .   & * * - $ $ # $ $ $ $ $ $ # $ $ $ $ $ $ # $ $ $ $ # ; > * * ,         ",
"                                    '   . .         .   & * * )                                                 ! * * ~         ",
"                                    * {   . .     .   & * * ]   .                                       .     ^ * / * ~         ",
"                                    ( _ :   . . .   & * * ]   .                                       .     ^ * < [ * ~         ",
"                                    *   } |   .   & * * ]   .                                       .     ^ * ^   1 * 2         ",
"                                    *     3 4   5 * * ]   .                                       .     ^ * ^     ' * 6         ",
"                                    *   .   + 7 * 8 )   .                                       .     ^ * ^       1 * 2         ",
"                                    *     .   9 * 0   .                                       .     ^ * ^     .   a * ~         ",
"                                    *       .   b * c   .                                   .     ^ * ^     .     a * ~         ",
"                                    *         .   d * c   .                               .     ^ * ^     .       a * ~         ",
"                                    *           .   1 * e   .                           .     ^ * ^     .         a * ~         ",
"                                    *                 f 8 g                           .     ^ * ^     .           1 * 2         ",
"                                    * * * * * * * * * * ( *                         .     ^ * ^     .             a * 6         ",
"                                  h                         h                     .     ^ * ^     .               1 * 2         ",
"                                                                                .     ^ * ^     .                 a * ~         ",
"                                                                              .     ^ * ^     .                   a * ~         ",
"                                                                            .     ^ * ^     .                     a * ~         ",
"                                                                          .     ^ * ^     .                       a * ~         ",
"      i j k l                                                           .     ^ * ^     .                         1 * 2         ",
"      m n o       p           q                                       .     ^ * ^     .                           a * 6         ",
"      r s t u v w   x y z A B                                       .     ^ * ^     .                             1 * 2         ",
"      C D E F G p H I J K L M N                                   .     ^ * ^     .                               a * ~         ",
"      i O P     Q R S l   m T U V                               .     ^ * ^     .                                 a * ~         ",
"      Q W X Y   Z `  .    ..+.@.#.                            .     ^ * ^     .                                   a * ~         ",
"      Q $.X Y   Z %.&.    ..*.=.#.                          .     ^ * ^     .                                     a * ~         ",
"      -.;.>.,.  '.).!.p   ~.{.].^.                        .     ^ * ^     .                                       1 * 2         ",
"      /.(.A _.    o s :.  <.[.}.                        .     ^ * ^     .                                         a * 6         ",
"        |.1.2.3.m   4.5.z 6.7.                        .     ^ * ^     .                                           1 * 2         ",
"      q           q   8.w                           .     ^ * ^     .                                             a * ~         ",
"                                                  .     ^ * ^     .                                               a * ~         ",
"                                                .     ^ * ^     .                                                 a * ~         ",
"                                              .     ^ * ^     .                                                   a * ~         ",
"                                            .     ^ * ^     .                                                     1 * 2         ",
"                                          .     ^ * ^     .                                                       a * 6         ",
"                                        .     ^ * ^     .                                                         1 * 2         ",
"                                      .     ^ * ^     .                                                           a * ~         ",
"                                    .     ^ * ^     .                                                             a * ~         ",
"                                  .     ^ * ^     .                                                               a * ~         ",
"                                .     ^ * ^     .                                                                 a * ~         ",
"                              .     ^ * ^     .                                                                   1 * 2         ",
"                            .     ^ * ^     .                                                                     a * 6         ",
"                          .     ^ * ^     .                                                                       1 * 2         ",
"                        .     ^ * ^     .               9.0.a.b.                                        c.  d.e.f.a * ~         ",
"                      .     ^ * ^ g.g..     h.i.j.j.k.  l.m.  n.o.              g.p.q.          c.r.s.    t.u.  v.w.* ~         ",
"                    .     ^ * ^ x.y.z.      A.B.C.D.E.F.G.    H.I.            J.y.K.L.M.      N.O.P.Q.y.  R.m.  S.T.* ~         ",
"                  .     ^ * ^   U.V.W.      X.Y.        Z.U.`. +              B..+    Q.++    @+#+    $+%+&+*+=+-+a * ~         ",
"                .     ^ * ^   ;+>+,+'+      )+!+  &+  &+  ~+{+  c.          I.B.      ]+^+    y./+  &+Z.y.    (+  1 * 2         ",
"              .     ^ * ^   N.B.  X.'+      _+B.U.y.R.                      F.B.  &+  ;+y.  o.B.&+  c.j.y.        a * 6         ",
"            .     ^ * ^     -+:+  X.<+      [+}+|+o.O.1+                      y.2+  3+B.y.  k.y.    c.o.B.        1 * 2         ",
"          .     ^ * ^     4+5+  |+6+7+        |+&+  8+O.                      x.9+0+y.a+y.  g.y.c.  c.m.O.        a * ~         ",
"        .     ^ * ^     . b+y.y.c+y.y.y.            Z.O.                          h.  d+0.    B.e+  &+Z.y.        a * ~         ",
"      .     ^ * ^     .           f+g+  &+  N.      h+i+                              O.d+    j+k+    l+j+        a * ~         ",
"    .     m+* !                   n+o+      y.p+k+q+c+r+                      W.%+s+y.t+      {+y.u+g+y.v+        w+* ~         ",
"        m+* * x+$ # $ # $ $ $ $ $ y+z+$ $ $ A+B+C+D+$ $ $ $ $ $ # $ $ $ $ $ $ E+F+C+G+$ $ $ # $ H+I+F+J+$ # $ $ ; K+* 6         ",
"      L+* * * * * * * * * * * * * * * * * * * * * * * * * * * * * * * * * * * * * * * * * * * * * * * * * * * * * * * M+        ",
"    .   N+# $ $ $ $ $ # $ $ $ $ $ $ # $ $ $ $ $ $ # $ $ $ $ $ $ # $ $ $ $ $ $ # $ $ $ $ $ $ # $ $ $ $ $ $ # $ $ $ # O+f         ",
"    . .                                                                                                                 .       ",
"                                                                                                                                ",
"                                                                                                                                "};
