/* XPM */
static char * fmslogo_16x16_xpm[] = {
"16 16 6 1",
" 	c None",
".	c #FFFFFF",
"+	c #000000",
"@	c #0000FF",
"#	c #808080",
"$	c #FF0D0D",
"................",
"..............+.",
".............++.",
".@......#...+.+.",
"@@@.....##.+..+.",
".@...@..#.#...+.",
".@..@.@.#..#..+.",
"..@..@..#####.+.",
"..............+.",
"......+.......+.",
".....+........+.",
"....+......$$$+.",
"...+.......$..+.",
"..+........$..+.",
".++++++++++++++.",
"................"};
