/* XPM */
static const char * fmslogo_64x64_xpm[] = {
"64 64 486 2",
"  	c #000000",
". 	c #030303",
"+ 	c #060606",
"@ 	c #050505",
"# 	c #0A0A0A",
"$ 	c #292929",
"% 	c #373737",
"& 	c #353535",
"* 	c #333333",
"= 	c #383838",
"- 	c #3A3A3A",
"; 	c #393939",
"> 	c #282828",
", 	c #A1A1A1",
"' 	c #D9D9D9",
") 	c #CFCFCF",
"! 	c #CBCBCB",
"~ 	c #CACACA",
"{ 	c #C9C9C9",
"] 	c #CECECE",
"^ 	c #DEDEDE",
"/ 	c #DDDDDD",
"( 	c #A0A0A0",
"_ 	c #FFFFFF",
": 	c #E4E4E4",
"< 	c #D2D2D2",
"[ 	c #D5D5D5",
"} 	c #D7D7D7",
"| 	c #D6D6D6",
"1 	c #D8D8D8",
"2 	c #DBDBDB",
"3 	c #DCDCDC",
"4 	c #EEEEEE",
"5 	c #E7E7E7",
"6 	c #585858",
"7 	c #171717",
"8 	c #222222",
"9 	c #272727",
"0 	c #262626",
"a 	c #2B2B2B",
"b 	c #363636",
"c 	c #696969",
"d 	c #F9F9F9",
"e 	c #E8E8E8",
"f 	c #E9E9E9",
"g 	c #FBFBFB",
"h 	c #FEFEFE",
"i 	c #FCFCFC",
"j 	c #9F9F9F",
"k 	c #414141",
"l 	c #161616",
"m 	c #1E1E1E",
"n 	c #212121",
"o 	c #242424",
"p 	c #1B1B1B",
"q 	c #A6A6A6",
"r 	c #A9A9A9",
"s 	c #EFEFEF",
"t 	c #FDFDFD",
"u 	c #474747",
"v 	c #323232",
"w 	c #9E9E9E",
"x 	c #D0D0D0",
"y 	c #C5C5C5",
"z 	c #C4C4C4",
"A 	c #C3C3C3",
"B 	c #A7A7A7",
"C 	c #E0E0E0",
"D 	c #8B8B8B",
"E 	c #828282",
"F 	c #C7C7C7",
"G 	c #F0F0F0",
"H 	c #999999",
"I 	c #303030",
"J 	c #464646",
"K 	c #B2B2B2",
"L 	c #575757",
"M 	c #969696",
"N 	c #757575",
"O 	c #818181",
"P 	c #AAAAAA",
"Q 	c #E3E3E3",
"R 	c #4D4D4D",
"S 	c #3C3C3C",
"T 	c #989898",
"U 	c #787878",
"V 	c #848484",
"W 	c #E2E2E2",
"X 	c #929292",
"Y 	c #8C8C8C",
"Z 	c #D1D1D1",
"` 	c #9B9B9B",
" .	c #A3A3A3",
"..	c #909090",
"+.	c #959595",
"@.	c #F1F1F1",
"#.	c #F7F7F7",
"$.	c #CCCCCC",
"%.	c #9A9A9A",
"&.	c #E6E6E6",
"*.	c #A8A8A8",
"=.	c #313131",
"-.	c #E1E1E1",
";.	c #9D9D9D",
">.	c #BBBBBB",
",.	c #9C9C9C",
"'.	c #A2A2A2",
").	c #919191",
"!.	c #CACACB",
"~.	c #FEFEFF",
"{.	c #888888",
"].	c #C9C9CB",
"^.	c #FDFDFF",
"/.	c #727272",
"(.	c #353533",
"_.	c #CECECB",
":.	c #D8D8FF",
"<.	c #D2D2FF",
"[.	c #F3F3FF",
"}.	c #EAEAEA",
"|.	c #AEAEAE",
"1.	c #030300",
"2.	c #383833",
"3.	c #D9D9CB",
"4.	c #E2E2FF",
"5.	c #5454FF",
"6.	c #4E4EFF",
"7.	c #D0D0FF",
"8.	c #060600",
"9.	c #3A3A33",
"0.	c #DEDECB",
"a.	c #1717FF",
"b.	c #1313FF",
"c.	c #C6C6FF",
"d.	c #FFFFFE",
"e.	c #393933",
"f.	c #DDDDCB",
"g.	c #D5D5FF",
"h.	c #2121FF",
"i.	c #2020FF",
"j.	c #D3D3FF",
"k.	c #050500",
"l.	c #2B2BFF",
"m.	c #1414FF",
"n.	c #9393FF",
"o.	c #DEDEFF",
"p.	c #F7F7FF",
"q.	c #F8F8FF",
"r.	c #C0C0FF",
"s.	c #C3C3FF",
"t.	c #DCDCFF",
"u.	c #3737FF",
"v.	c #0000FF",
"w.	c #0505FF",
"x.	c #5050FF",
"y.	c #D1D1FF",
"z.	c #E1E1FF",
"A.	c #5252FF",
"B.	c #1111FF",
"C.	c #1C1CFF",
"D.	c #D6D6FF",
"E.	c #E6E6FF",
"F.	c #A5A5FF",
"G.	c #4343FF",
"H.	c #1515FF",
"I.	c #1D1DFF",
"J.	c #E3E3FF",
"K.	c #A2A2FF",
"L.	c #CFCFFF",
"M.	c #C8C8FF",
"N.	c #2626FF",
"O.	c #2525FF",
"P.	c #D4D4FF",
"Q.	c #BFBFFF",
"R.	c #1010FF",
"S.	c #D7D7FF",
"T.	c #2727FF",
"U.	c #2323FF",
"V.	c #CACAFF",
"W.	c #C5C5FF",
"X.	c #2222FF",
"Y.	c #1E1EFF",
"Z.	c #C9C9FF",
"`.	c #1616FF",
" +	c #FFFFFD",
".+	c #E4E4FF",
"++	c #5858FF",
"@+	c #4141FF",
"#+	c #9E9EFF",
"$+	c #DFDFFF",
"%+	c #5252FE",
"&+	c #D1D1FE",
"*+	c #FDFFFF",
"=+	c #FEFFFF",
"-+	c #FFFEFE",
";+	c #C5C4C4",
">+	c #E7E7FF",
",+	c #9F9FFF",
"'+	c #3333FF",
")+	c #4444FF",
"!+	c #E1E1FE",
"~+	c #F7F7FD",
"{+	c #FCFBFB",
"]+	c #FFFDFD",
"^+	c #C5C3C3",
"/+	c #3D3DFF",
"(+	c #CBCBFF",
"_+	c #FBFBFC",
":+	c #FDF5F5",
"<+	c #FECDCD",
"[+	c #FFCDCD",
"}+	c #FFF6F6",
"|+	c #FFD3D3",
"1+	c #C5CECE",
"2+	c #212424",
"3+	c #CECEFF",
"4+	c #CCCCFF",
"5+	c #F1F1FF",
"6+	c #FEDBDB",
"7+	c #FE4141",
"8+	c #FF4242",
"9+	c #FFDCDC",
"0+	c #FF4848",
"a+	c #FFEDED",
"b+	c #C5E4E4",
"c+	c #212B2B",
"d+	c #272626",
"e+	c #D7D6D6",
"f+	c #FF9D9D",
"g+	c #FF3B3B",
"h+	c #FF4141",
"i+	c #FFAFAF",
"j+	c #C5A2A2",
"k+	c #211919",
"l+	c #272B2B",
"m+	c #D7D8D8",
"n+	c #FFB9B9",
"o+	c #FFBFBF",
"p+	c #FF4D4D",
"q+	c #C50808",
"r+	c #210000",
"s+	c #273737",
"t+	c #D7DCDC",
"u+	c #FCFDFD",
"v+	c #DDE2E2",
"w+	c #999F9F",
"x+	c #303232",
"y+	c #474646",
"z+	c #FF4040",
"A+	c #FFBBBB",
"B+	c #FFD4D4",
"C+	c #DDE1E1",
"D+	c #475656",
"E+	c #304040",
"F+	c #999E9E",
"G+	c #DDDCDC",
"H+	c #FCFAFA",
"I+	c #FFEFEF",
"J+	c #FFABAB",
"K+	c #FF3F3F",
"L+	c #FF3A3A",
"M+	c #FCFEFE",
"N+	c #DDE6E6",
"O+	c #999393",
"P+	c #300505",
"Q+	c #471A1A",
"R+	c #DDD1D1",
"S+	c #FDF3F3",
"T+	c #FED5D5",
"U+	c #FFC5C5",
"V+	c #FFC3C3",
"W+	c #FFCCCC",
"X+	c #FFE0E0",
"Y+	c #FFADAD",
"Z+	c #FF3636",
"`+	c #FF4646",
" @	c #FFDDDD",
".@	c #FFF8F8",
"+@	c #FFD2D2",
"@@	c #FFD1D1",
"#@	c #FFC8C8",
"$@	c #FFDEDE",
"%@	c #FF5151",
"&@	c #FFF0F0",
"*@	c #C5E3E3",
"=@	c #212A2A",
"-@	c #476565",
";@	c #301212",
">@	c #990000",
",@	c #DD2C2C",
"'@	c #FCCDCD",
")@	c #FE5E5E",
"!@	c #FF2121",
"~@	c #FF2020",
"{@	c #FF1E1E",
"]@	c #FF1B1B",
"^@	c #FFA0A0",
"/@	c #FFFCFC",
"(@	c #FFE1E1",
"_@	c #FF5252",
":@	c #FF0B0B",
"<@	c #FF0E0E",
"[@	c #FF1414",
"}@	c #FF4A4A",
"|@	c #FFB0B0",
"1@	c #FFF2F2",
"2@	c #C5CDCD",
"3@	c #999494",
"4@	c #301717",
"5@	c #470000",
"6@	c #DD0000",
"7@	c #FF3535",
"8@	c #FFCBCB",
"9@	c #FFC6C6",
"0@	c #FF0000",
"a@	c #FF1616",
"b@	c #FF2525",
"c@	c #FF1313",
"d@	c #FFA1A1",
"e@	c #FF1818",
"f@	c #FF4747",
"g@	c #FFA6A6",
"h@	c #FFE2E2",
"i@	c #FFFBFB",
"j@	c #FFA5A5",
"k@	c #FF4343",
"l@	c #FF1111",
"m@	c #FF1010",
"n@	c #FFB4B4",
"o@	c #FFF7F7",
"p@	c #C5C7C7",
"q@	c #212222",
"r@	c #475555",
"s@	c #300808",
"t@	c #FC0000",
"u@	c #FF3434",
"v@	c #FFC4C4",
"w@	c #FF1F1F",
"x@	c #FF1515",
"y@	c #FFC9C9",
"z@	c #FF3737",
"A@	c #FFE7E7",
"B@	c #FFE6E6",
"C@	c #FFB1B1",
"D@	c #FF5656",
"E@	c #FF5757",
"F@	c #FFA2A2",
"G@	c #FFA4A4",
"H@	c #FF5E5E",
"I@	c #FFE5E5",
"J@	c #C5D3D3",
"K@	c #212626",
"L@	c #99A1A1",
"M@	c #304949",
"N@	c #471313",
"O@	c #FD3434",
"P@	c #FECBCB",
"Q@	c #FF9F9F",
"R@	c #FFF4F4",
"S@	c #FFE9E9",
"T@	c #FFEBEB",
"U@	c #FF0A0A",
"V@	c #FFD5D5",
"W@	c #FF1717",
"X@	c #FFCFCF",
"Y@	c #C5D8D8",
"Z@	c #212828",
"`@	c #303B3B",
" #	c #99BDBD",
".#	c #DDB4B4",
"+#	c #FC2020",
"@#	c #FE3535",
"##	c #FF0404",
"$#	c #FF5D5D",
"%#	c #FF1D1D",
"&#	c #FF2727",
"*#	c #FF3131",
"=#	c #FFDBDB",
"-#	c #FFD6D6",
";#	c #FF2222",
">#	c #C5D7D7",
",#	c #212727",
"'#	c #999B9B",
")#	c #303434",
"!#	c #474040",
"~#	c #DDBEBE",
"{#	c #FFCACA",
"]#	c #FF6363",
"^#	c #FD1C1C",
"/#	c #FE0000",
"(#	c #FF5454",
"_#	c #FFD7D7",
":#	c #303535",
"<#	c #99A8A8",
"[#	c #DDB0B0",
"}#	c #FC4E4E",
"|#	c #FEB5B5",
"1#	c #FE1D1D",
"2#	c #FF2828",
"3#	c #FFF3F3",
"4#	c #FF9797",
"5#	c #FF2B2B",
"6#	c #FFD8D8",
"7#	c #474D4D",
"8#	c #DDF1F1",
"9#	c #FFDFDF",
"0#	c #FF1919",
"a#	c #FD0808",
"b#	c #FEAEAE",
"c#	c #FFB7B7",
"d#	c #FF2323",
"e#	c #FF9494",
"f#	c #FFF1F1",
"g#	c #DDE4E4",
"h#	c #FCFFFF",
"i#	c #FFCECE",
"j#	c #FE1717",
"k#	c #FF0707",
"l#	c #FF5050",
"m#	c #FF3D3D",
"n#	c #FF4444",
"o#	c #FFDADA",
"p#	c #FF2929",
"q#	c #FF0F0F",
"r#	c #FF5858",
"s#	c #FFA8A8",
"t#	c #FF4949",
"u#	c #FF3939",
"v#	c #FFD9D9",
"w#	c #FFEAEA",
"x#	c #C9D8D8",
"y#	c #232727",
"z#	c #555555",
"A#	c #434343",
"B#	c #ACACAC",
"C#	c #FF1C1C",
"D#	c #FFE8E8",
"E#	c #FF6262",
"F#	c #FFEEEE",
"G#	c #FF5353",
"H#	c #FF2424",
"I#	c #FFF9F9",
"J#	c #D3D7D7",
"K#	c #252626",
"L#	c #8E8E8E",
"M#	c #020202",
"N#	c #090909",
"O#	c #C4C3C3",
"P#	c #C5C8C8",
"Q#	c #C5DDDD",
"R#	c #C5E7E7",
"S#	c #C5A5A5",
"T#	c #C51717",
"U#	c #C5A6A6",
"V#	c #C5E8E8",
"W#	c #C59797",
"X#	c #C51414",
"Y#	c #C50000",
"Z#	c #C51919",
"`#	c #C5A7A7",
" $	c #C9E9E9",
".$	c #D3DCDC",
"+$	c #959494",
"@$	c #101010",
"#$	c #040404",
"$$	c #DADADA",
"%$	c #E5E5E5",
"&$	c #191919",
"*$	c #212323",
"=$	c #212929",
"-$	c #212C2C",
";$	c #211A1A",
">$	c #211B1B",
",$	c #211515",
"'$	c #232C2C",
")$	c #252828",
"!$	c #DFDFDF",
"~$	c #595959",
"{$	c #1C1C1C",
"]$	c #273636",
"^$	c #273B3B",
"/$	c #6A6A6A",
"($	c #D4D4D4",
"_$	c #D7DBDB",
":$	c #D7DDDD",
"<$	c #010101",
"                                                                    . + + @ @ @ @ @ @ @ @ @ @ @ @ @ @ @ @ @ @ @ @ + + .         ",
"  # $ % & * * * * * * * * * * * * * * * * * * * * * * * * * * * * & = - ; ; ; ; ; ; ; ; ; ; ; ; ; ; ; ; ; ; ; ; ; ; - ; = > #   ",
"  $ , ' ) ! ! ! ! ! ! ! ! ! ! ! ! ! ! ! ! ! ! ! ! ! ! ! ! ! ! ~ { ] ' ^ / / / / / / / / / / / / / / / / / / / / / / ^ ^ / ( >   ",
"  % ' _ _ _ _ _ _ _ _ _ _ _ _ _ _ _ _ _ _ _ _ _ _ _ _ _ _ _ _ _ _ _ : < [ } } } } } } } } } } } } } } } } } | 1 2 3 ' 4 _ / =   ",
"  & ) _ _ _ _ _ _ _ _ _ _ _ _ _ _ _ _ _ _ _ _ _ _ _ _ _ _ _ _ _ _ 5 6 7 8 9 9 9 9 9 9 9 9 9 9 9 9 9 9 9 9 9 0 a b b a c 4 ^ ;   ",
"  * ! _ _ _ _ _ _ _ _ _ _ _ _ d e f g _ _ h h _ _ _ _ h h _ _ i / j k l m n n n n n n n n n n n n n n n n o a p       a ' ^ -   ",
"  * ! _ _ _ _ _ _ _ _ _ _ _ _ 5 q r s _ _ h h _ _ _ _ h t _ _ / u v w x { y y y y y y y y y y y y y y z A ] : B 7     b 3 / ;   ",
"  * ! _ _ _ _ _ _ _ _ _ _ _ _ C D E F G h _ _ h h h h _ _ i / H I J 3 _ _ _ _ _ _ _ _ _ _ _ _ _ _ _ _ _ _ _ s K L 7   b 2 / ;   ",
"  * ! _ _ _ _ _ _ _ _ _ _ _ _ : M N O P G _ _ h h h t _ _ / u I H / g _ _ _ _ _ _ _ _ _ _ _ _ _ _ _ _ _ _ Q R S K B p a 1 / ;   ",
"  * ! _ _ _ _ _ _ _ _ _ _ _ _ : T U V , ) 4 t _ _ _ _ i / H I u / _ _ t h _ _ _ _ _ _ _ _ _ _ h h _ _ i / H I R s : a 0 | / ;   ",
"  * ! _ _ _ _ _ _ _ _ _ _ _ _ W X Y Z [ `  .4 _ _ _ _ / u I H / i _ _ h h _ _ _ _ _ _ _ _ _ _ h t _ _ / u I H Q _ ] o 9 } / ;   ",
"  * ! _ _ _ _ _ _ _ _ _ _ _ _ W ..+.@.#.q T $.s _ g / %.I u / _ _ t h _ _ _ _ _ _ _ _ _ _ h h _ _ i / H I u / _ _ A n 9 } / ;   ",
"  * ! _ _ _ _ _ _ _ _ _ _ _ _ W ..X &._ @.$.T *.h / u =.%./ i _ _ h h _ _ _ _ _ _ _ _ _ _ h t _ _ / u I H / i _ _ z n 9 } / ;   ",
"  * ! _ _ _ _ _ _ _ _ _ _ _ _ W ....-._ _ 4  .;.3 >.S u / _ _ t h _ _ _ _ _ _ _ _ _ _ h h _ _ i / H I u / _ _ _ _ y n 9 } / ;   ",
"  * ! _ _ _ _ _ _ _ _ _ _ _ _ W ....W _ _ t 4 ] ,.M >./ g _ _ h h _ _ _ _ _ _ _ _ _ _ h t _ _ / u I H / i _ _ _ _ y n 9 } / ;   ",
"  * ! _ _ _ _ _ _ _ _ _ _ _ _ W ....W _ _ _ _ 4 '.,.3 h _ _ _ h h _ _ _ _ _ _ _ _ h h _ _ i / H I u / _ _ t h _ _ y n 9 } / ;   ",
"  * ! _ _ _ _ _ _ _ _ _ _ _ _ W ....W _ _ _ _ t 4 ] ;.*.s _ _ h h _ _ _ _ _ _ _ _ h t _ _ / u I H / i _ _ h h _ _ y n 9 } / ;   ",
"  * ! _ _ _ _ _ _ _ _ _ _ _ _ W ....W _ _ h h _ _ 4  .T $.4 t _ _ h h _ _ _ _ h h _ _ i / H I u / _ _ t h _ _ _ _ y n 9 } / ;   ",
"  * ! _ _ _ _ _ _ _ _ _ _ _ _ W ....W _ _ h h _ _ t 4 $.T  .4 _ _ h h _ _ _ _ h t _ _ / u I H / i _ _ h h _ _ _ _ y n 9 } / ;   ",
"  * ! _ _ _ _ _ _ _ _ _ _ _ _ W ..).: _ _ _ _ _ _ _ _ @.q ` ) G h _ _ h h h h _ _ i / H I u / _ _ t h _ _ _ _ _ _ y n 9 } / ;   ",
"  * ! _ _ _ _ _ _ _ _ _ _ _ _ W ..X f _ _ _ _ _ _ _ _ _ #.[ , P G _ _ h h h t _ _ / u I H / i _ _ h h _ _ _ _ _ _ y n 9 } / ;   ",
"  * !._ _ _ _ ~.~._ _ _ _ _ _ W ..{.~ f : W W W W W -.&.@.Z V O F s g _ _ _ _ i / H I u / _ _ t h _ _ _ _ _ _ _ _ y n 9 } / ;   ",
"  * ]._ _ _ _ ^.~._ _ _ _ _ _ W ../.{.X ).............X +.Y U N E r f _ _ _ _ / u I H / i _ _ h h _ _ _ _ _ _ _ _ y n 9 } / ;   ",
"  (._._ :.<.[._ _ _ _ _ _ _ _ }.|.........................X T M D q 5 _ _ i / H I u / _ _ t h _ _ _ _ _ _ _ _ _ _ y n 9 } / ;   ",
"1.2.3.4.5.6.7._ _ _ _ _ _ _ _ d }.W W W W W W W W W W W W W : : C 5 #._ _ / u I H / i _ _ h h _ _ _ _ _ _ _ _ _ _ y n 9 } / ;   ",
"8.9.0.<.a.b.c._ _ ~.~._ _ d.d._ _ _ _ _ _ _ _ _ _ _ _ _ _ _ _ _ _ _ _ g / H I u / _ _ t h _ _ _ _ _ _ _ _ _ _ _ _ y n 9 } / ;   ",
"8.e.f.g.h.i.j._ _ ^.^._ _ d.d._ _ _ _ _ _ _ _ _ _ _ _ _ _ _ _ _ _ _ _ / u I H / i _ _ h h _ _ _ _ _ _ _ _ _ _ _ _ y n 9 } / ;   ",
"k.e.f.:.l.m.n.o.p._ _ q.<.r.s.s.r.<.q._ _ ~.~._ _ _ _ _ _ h h _ _ i / H I u / _ _ t h _ _ _ _ _ _ _ _ _ _ _ _ _ _ y n 9 } / ;   ",
"k.e.f.t.u.v.w.x.y._ _ z.A.B.C.C.B.A.z._ _ ^.~._ _ _ _ _ _ h t _ _ / u I H / i _ _ h h _ _ _ _ _ _ _ _ _ _ _ _ _ _ y n 9 } / ;   ",
"k.e.f.t.u.v.w.A.D._ E.F.G.H.I.I.H.G.F.z.q._ _ _ _ _ _ h h _ _ i / H I u / _ _ t h _ _ _ _ _ _ _ _ _ _ _ _ _ _ _ _ y n 9 } / ;   ",
"k.e.f.:.l.m.n.J._ D.5.G.K.L.M.M.L.K.G.A.<._ _ _ _ _ _ h t _ _ / u I H / i _ _ h h _ _ _ _ _ _ _ _ _ _ _ _ _ _ _ _ y n 9 } / ;   ",
"k.e.f.D.N.O.P._ _ Q.R.H.L._ _ _ _ L.H.B.r._ _ _ _ h h _ _ i / H I u / _ _ t h _ _ _ _ _ _ _ _ _ _ _ _ _ _ _ _ _ _ y n 9 } / ;   ",
"k.e.f.S.T.U.V._ _ s.C.I.M._ _ _ _ M.I.C.s._ _ _ _ h t _ _ / u I H / i _ _ h h _ _ _ _ _ _ _ _ _ _ _ _ _ _ _ _ _ _ y n 9 } / ;   ",
"k.e.f.S.T.h.W._ _ W.h.h.W._ _ _ _ W.h.h.W._ _ h h _ _ i / H I u / _ _ t h _ _ _ _ _ _ _ _ _ _ _ _ _ _ _ _ _ _ _ _ y n 9 } / ;   ",
"k.e.f.S.T.h.W._ _ W.h.h.W._ _ _ _ W.h.h.W._ _ h t _ _ / u I H / i _ _ h h _ _ _ _ _ _ _ _ _ _ _ _ _ _ _ _ _ _ _ _ y n 9 } / ;   ",
"8.e.f.g.X.Y.Z._ _ s.C.I.M._ _ _ _ M.I.C.s.d.d._ _ i / H I u / _ _ t h _ _ _ _ _ _ _ _ _ _ _ _ _ _ _ _ _ _ _ _ _ _ y n 9 } / ;   ",
"8.9.0.<.a.`.7._ _ Q.R.H.L._ _ _ _ L.H.B.r.d. +_ _ / u I H / i _ _ h h _ _ _ _ _ _ _ _ _ _ _ _ _ _ _ _ _ _ _ _ _ _ y n 9 } / ;   ",
"1.2.3..+++@+#+$+_ D.5.G.K.L.M.M.L.K.G.%+&+_ _ i / H I u / _ _ *+=+-+-+_ _ _ _ _ _ _ _ _ _ _ _ _ _ _ _ -+-+_ _ _ _ ;+n 9 } / ;   ",
"  (._._ >+,+'+)+y._ E.F.G.H.I.I.H.G.F.!+~+_ _ / u I H / {+_ _ =+=+]+-+_ _ _ _ _ _ _ _ _ _ _ _ _ _ _ _ -+]+_ _ _ _ ^+n 9 } / ;   ",
"  * ]._ _ t.G./+(+_ _ z.A.B.C.C.B.%+!+_ _ _+/ H I u / _ _ :+<+[+}+_ _ -+-+_ _ _ _ _ _ _ _ _ _ _ _ -+-+_ _ }+[+|+_ 1+2+9 } / ;   ",
"  * !._ _ p.3+4+5+_ _ q.<.r.s.s.r.&+~+_ _ / u I H / {+_ _ 6+7+8+9+_ _ ]+-+_ _ _ _ _ _ _ _ _ _ _ _ -+]+_ _ 9+8+0+a+b+c+d+e+/ ;   ",
"  * ! _ _ _ _ _ _ ^.^._ _ _ _ d.d._ _ _+/ H I u / _ _ :+6+f+g+g+f+9+}+_ _ _ _ _ _ _ _ _ _ _ _ _ _ _ _ }+9+f+g+h+i+j+k+l+m+/ ;   ",
"  * ! _ _ _ _ _ _ ~.~._ _ _ _ d. +_ _ / u I H / i _ _ <+7+g+n+n+g+8+[+_ _ _ _ _ _ _ _ _ _ _ _ _ _ _ _ [+8+g+n+o+p+q+r+s+t+/ ;   ",
"  * ! _ _ _ _ _ _ _ _ _ _ h h _ _ u+v+w+x+y+/ _ _ *+=+|+0+z+A+n+g+8+[+_ _ -+-+_ _ _ _ _ _ -+-+-+-+_ _ B+0+z+A+o+p+q+r+s+t+/ ;   ",
"  * ! _ _ _ _ _ _ _ _ _ _ h t _ _ C+D+E+F+G+H+_ _ =+=+_ I+J+K+L+f+9+}+_ _ -+]+_ _ _ _ _ _ ]+-+-+]+_ _ _ I+J+K+z+i+j+k+l+m+/ ;   ",
"  * ! _ _ _ _ _ _ _ _ h h _ _ M+N+O+P+Q+R+_ _ S+T+U+V+W+X+Y+Z+`+ @_ _ ]+-+_ _ .@+@o+o++@.@_ _ _ _ .@@@#@$@i+g+%@&@*@=@d+e+/ ;   ",
"  * ! _ _ _ _ _ _ _ _ h t _ _ N+-@;@>@,@'@_ _ T+)@!@~@{@]@`+^@ @/@_ _ -+]+_ _ (@_@:@:@_@(@_ _ _ _ (@_@<@[@}@|@1@_ 2@2+9 } / ;   ",
"  * ! _ _ _ _ _ _ h h _ _ u+C+3@4@5@6@7@8@*+=+9@!@0@a@b@c@_@(@_ _ ]+-+_ _ }+9+d@`+e@e@f@g@h@i@/@h@j@k@l@m@f@n@o@_ p@q@9 } / ;   ",
"  * ! _ _ _ _ _ _ h t _ _ v+r@s@>@6@t@u@8@=+=+v@w@x@j@(@y@@@.@_ _ -+-+_ _ [+8+z@Y+A@B@C@`+D@X+X+E@k@F@+@+@G@0+H@I@J@K@9 } / ;   ",
"  * ! _ _ _ _ h h _ _ i / L@M@N@6@0@0@O@P@_ _ v@w@c@Q@R@_ _ _ ]+-+_ _ _ _ [+8+z@Y+S@T@d@U@]@V@|+W@x@X@_ _ X@x@W@+@Y@Z@9 } / ;   ",
"  * ! _ _ _ _ h t _ _ / y+`@ #.#+#0@0@@#P@_ _ 9@!@0@##$#S@_ _ ]+-+_ _ _ _ }+9+d@`+%#&#e@0@*#=#-#;#%##@_ _ #@%#;#V@>#,#9 } / ;   ",
"  * ! _ _ h h _ _ i / '#)#!#~#{#]#^#/#*#X@_ _ V@H@%#[@h+G@(@.@_ _ _ _ -+]+_ _ B@(#l@{@x@0@z@9+_#&#!@U+_ _ U+!@&#_#>#,#9 } / ;   ",
"  * ! _ _ h t _ _ / u :#<#[#}#D@#@|#1#2#V@_ _ 3#V@y@X@F@8+_@+@_ _ _ _ -+]+_ _ _ -#v@@@4#a@5#6#_#&#!@U+_ _ U+!@&#_#>#,#9 } / ;   ",
"  * ! _ _ _ _ i / H I 7#8#9#0#a#b#c#d#W@e#$@}+_ _ _ _ +@l@:@o+_ _ _ _ _ _ f#8@@@_ _ _ -#!@!@V@-#;#%##@_ _ #@%#;#V@>#,#9 } / ;   ",
"  * ! _ _ _ _ / u I H g#h#i#{@/#j#d#k#0@U@l#@@_ _ _ _ +@l@:@o+_ _ _ _ _ _ W+m#n#9#_ _ B+W@W@|+|+W@x@X@_ _ X@x@W@+@Y@Z@9 } / ;   ",
"  * ~ _ _ t W ( b R Q _ _ o#]#2#p#%###0@q#r# @_ 9+{#B+s#t#r#6#_ _ _ _ _ _ B+t#u#G@o#v#s#t#$#B@B@$#t#s#6#6#s#t#H@w#x#y#9 } / ;   ",
"  * { _ _ -.z#A#B#s _ _ _ _ A@ @B@j@C#]@F@o@_ D#E#~@;#(#c#3#_ _ _ _ _ _ _ _ F#C@G#H#H#(#c#R@_ _ R@c#(#d#d#(#c#I#_ J#K#0 | / ;   ",
"  & ) _ &.L#M#N#'.: ] A O#P#J@Q#R#S#T#T#U#V#Q#W#X#Y#Y#Z#`#b+1+^+;+y y ;+^+1+b+`#Z#Y#Y#Z#`#*@2@2@*@`#Z#Y#Y#Z#`# $.$+$@$0 } / ;   ",
"#$= $$%$6 @     &$a o n n *$K@=$-$;$r+r+>$-$Z@,$r+r+r+r+>$c+2+n n n n n n 2+c+>$r+r+r+r+>$=@2+2+=@>$r+r+r+r+>$'$)$@$  9 1 ^ -   ",
"#$- !$f ~${$v % a 0 9 9 9 9 9 9 d+l+s+s+l+d+d+l+]$^$^$]$l+d+9 9 9 9 9 9 9 9 d+l+]$^$^$]$l+d+9 9 d+l+]$^$^$]$l+d+0 0 9 /$4 ^ ;   ",
"  = / _ e ($$$3 1 | } } } } } } e+m+t+t+m+e+e+m+_$:$:$_$m+e+} } } } } } } } e+m+_$:$:$_$m+e+} } e+m+_$:$:$_$m+e+| } 1 4 _ / =   ",
"  > ( / ^ ^ / / / / / / / / / / / / / / / / / / / / / / / / / / / / / / / / / / / / / / / / / / / / / / / / / / / / ^ ^ / ( >   ",
"  # > = ; - ; ; ; ; ; ; ; ; ; ; ; ; ; ; ; ; ; ; ; ; ; ; ; ; ; ; ; ; ; ; ; ; ; ; ; ; ; ; ; ; ; ; ; ; ; ; ; ; ; ; ; ; - ; = > #   ",
"                                                                                                                              <$"};
