/* XPM */
static const char * fmslogo_16x16_xpm[] = {
"16 16 6 1",
" 	c None",
".	c #000000",
"+	c #FFFFFF",
"@	c #0000FF",
"#	c #808080",
"$	c #FF0000",
"................",
".++++++++++++++.",
".++++++++++++.+.",
".+@+++++#+++..+.",
".+@@++++##+.+.+.",
".+@++@++#+#++.+.",
".+@+@+@+#++#+.+.",
".++@+@++#####.+.",
".++++++++++++.+.",
".+++++.++++++.+.",
".++++.++++$$$.+.",
".+++.+++++$++.+.",
".++.++++++$++.+.",
".+............+.",
".++++++++++++++.",
"................"};
