/* XPM */
static char * fmslogo_32x32_xpm[] = {
"32 32 7 1",
" 	c None",
".	c #FFFFFF",
"+	c #000000",
"@	c #808080",
"#	c #0000FF",
"$	c #FF0000",
"%	c #FF0D0D",
"................................",
"..................+++++++++++++.",
".................+...........++.",
"........@.......+...........+.+.",
"........@@.....+...........+..+.",
"........@.@...+...........+...+.",
"........@..@.+...........+....+.",
"........@...@...........+.....+.",
"........@....@.........+......+.",
"........@.....@.......+.......+.",
"........@......@.....+........+.",
"........@@@@@@@@@...+.........+.",
"..#................+..........+.",
"..#...............+...........+.",
".###..###........+............+.",
"..#..#...#......+.............+.",
"..#..#...#.....+..............+.",
"..#..#...#....+...............+.",
"..#..#...#...+................+.",
"...#..###...+.................+.",
"...........+..................+.",
"..........+....$............$.+.",
".........+....$.$..........$.$+.",
"........+......$............$.+.",
".......+.$..$$$......$$...$$..+.",
"......+$.$..$.......$..$.$..$.+.",
".....+.$.$..$$.......$$$.$..$.+.",
"....+..$$$$...$........$.$..$.+.",
"...+.....$....$.....$..$.$..$.+.",
"..+......$..$$.......$$...$$..+.",
".++++++++++++++++++++++++++++++.",
"................................"};
