/* XPM */
static const char * fmslogo_32x32_xpm[] = {
"32 32 488 2",
"  	c None",
". 	c #114F16",
"+ 	c #124D14",
"@ 	c #124F16",
"# 	c #124F17",
"$ 	c #115017",
"% 	c #115016",
"& 	c #155014",
"* 	c #077530",
"= 	c #116A28",
"- 	c #1C6822",
"; 	c #0F6D25",
"> 	c #12621F",
", 	c #145819",
"' 	c #135318",
") 	c #125017",
"! 	c #134E15",
"~ 	c #006D2E",
"{ 	c #32993D",
"] 	c #3AA743",
"^ 	c #36A542",
"/ 	c #009541",
"( 	c #008A3D",
"_ 	c #22892A",
": 	c #1B7C22",
"< 	c #0E7D2C",
"[ 	c #0D7329",
"} 	c #125E1C",
"| 	c #125317",
"1 	c #145316",
"2 	c #359536",
"3 	c #3DAE45",
"4 	c #3CAC44",
"5 	c #3AA844",
"6 	c #007E36",
"7 	c #007231",
"8 	c #37A944",
"9 	c #30A63D",
"0 	c #009540",
"a 	c #009640",
"b 	c #008A3E",
"c 	c #1B7620",
"d 	c #16651D",
"e 	c #125117",
"f 	c #105319",
"g 	c #03913D",
"h 	c #0F8B3A",
"i 	c #41B347",
"j 	c #349E3C",
"k 	c #5EB75F",
"l 	c #2E9438",
"m 	c #40AE46",
"n 	c #3FB146",
"o 	c #12923C",
"p 	c #029741",
"q 	c #00873B",
"r 	c #20962A",
"s 	c #208F28",
"t 	c #1E7E23",
"u 	c #1A6A1C",
"v 	c #125216",
"w 	c #096C29",
"x 	c #01933E",
"y 	c #007A35",
"z 	c #3EAD45",
"A 	c #2E9536",
"B 	c #AEF5A4",
"C 	c #8EDB88",
"D 	c #42A147",
"E 	c #38A240",
"F 	c #028438",
"G 	c #077833",
"H 	c #31A63A",
"I 	c #0F9635",
"J 	c #07953B",
"K 	c #01903D",
"L 	c #167825",
"M 	c #17661E",
"N 	c #145919",
"O 	c #135A1A",
"P 	c #047631",
"Q 	c #28983E",
"R 	c #3FB046",
"S 	c #ABF3A2",
"T 	c #9EE997",
"U 	c #A7EF9E",
"V 	c #79CB76",
"W 	c #33983C",
"X 	c #369F41",
"Y 	c #34A341",
"Z 	c #43B648",
"` 	c #44B548",
" .	c #00923F",
"..	c #019640",
"+.	c #088834",
"@.	c #208C26",
"#.	c #1A7520",
"$.	c #15621B",
"%.	c #3BA640",
"&.	c #3EB247",
"*.	c #3FAF46",
"=.	c #A0EA98",
"-.	c #9EE896",
";.	c #A5EE9D",
">.	c #64BB65",
",.	c #309738",
"'.	c #3DA945",
").	c #34A843",
"!.	c #00943F",
"~.	c #007835",
"{.	c #21992A",
"].	c #239328",
"^.	c #148029",
"/.	c #19691C",
"(.	c #145E1A",
"_.	c #134F16",
":.	c #1D6F1F",
"<.	c #41AE46",
"[.	c #3FB347",
"}.	c #3EAF46",
"|.	c #9FEA97",
"1.	c #9BE694",
"2.	c #4FAC53",
"3.	c #30983A",
"4.	c #138638",
"5.	c #008339",
"6.	c #007833",
"7.	c #30A241",
"8.	c #32AA44",
"9.	c #03953D",
"0.	c #009641",
"a.	c #058837",
"b.	c #1A6F1E",
"c.	c #16631C",
"d.	c #0C6B26",
"e.	c #008E3D",
"f.	c #2BA141",
"g.	c #3DAD45",
"h.	c #9FE997",
"i.	c #A4ED9C",
"j.	c #89D885",
"k.	c #3FA044",
"l.	c #31993D",
"m.	c #32A040",
"n.	c #3DB046",
"o.	c #2EA643",
"p.	c #01913D",
"q.	c #0D7A2C",
"r.	c #1A7321",
"s.	c #17671C",
"t.	c #058033",
"u.	c #00953F",
"v.	c #0D893A",
"w.	c #3EAD44",
"x.	c #2C9034",
"y.	c #ACF3A2",
"z.	c #9EE996",
"A.	c #A7F09E",
"B.	c #73C672",
"C.	c #32983B",
"D.	c #3CA844",
"E.	c #3DAC45",
"F.	c #008037",
"G.	c #008A3B",
"H.	c #007734",
"I.	c #24962E",
"J.	c #1F8A27",
"K.	c #1A7722",
"L.	c #186A1E",
"M.	c #144B14",
"N.	c #008237",
"O.	c #01943F",
"P.	c #018C3C",
"Q.	c #056E2E",
"R.	c #3AA140",
"S.	c #299032",
"T.	c #ACF4A2",
"U.	c #A3ED9B",
"V.	c #5FB761",
"W.	c #319838",
"X.	c #2D923B",
"Y.	c #218436",
"Z.	c #1E7F34",
"`.	c #3A9E3F",
" +	c #26932C",
".+	c #1B8B2A",
"++	c #197923",
"@+	c #186E1F",
"#+	c #125016",
"$+	c #18661C",
"%+	c #0C8332",
"&+	c #0A7732",
"*+	c #39A740",
"=+	c #252504",
"-+	c #86C179",
";+	c #98E391",
">+	c #3A8739",
",+	c #263E0F",
"'+	c #252805",
")+	c #262B07",
"!+	c #233F11",
"~+	c #067C33",
"{+	c #048537",
"]+	c #1B7A22",
"^+	c #197120",
"/+	c #196E1F",
"(+	c #2C9D32",
"_+	c #44B547",
":+	c #37A73F",
"<+	c #668D52",
"[+	c #658C52",
"}+	c #38431A",
"|+	c #327B2F",
"1+	c #30792E",
"2+	c #1F320A",
"3+	c #017833",
"4+	c #1F8D27",
"5+	c #1B7B22",
"6+	c #197321",
"7+	c #009441",
"8+	c #07923E",
"9+	c #1B8B39",
"0+	c #364118",
"a+	c #45592C",
"b+	c #45582B",
"c+	c #364119",
"d+	c #2C310E",
"e+	c #8DC680",
"f+	c #6EC06D",
"g+	c #319438",
"h+	c #329B3F",
"i+	c #319F40",
"j+	c #32A43D",
"k+	c #1E8A28",
"l+	c #1D8225",
"m+	c #145216",
"n+	c #048D3A",
"o+	c #008437",
"p+	c #587640",
"q+	c #292B09",
"r+	c #99DF8F",
"s+	c #587741",
"t+	c #689054",
"u+	c #56753F",
"v+	c #8AC77E",
"w+	c #5FB961",
"x+	c #39A641",
"y+	c #2A9A3F",
"z+	c #39A645",
"A+	c #2AA032",
"B+	c #2DA036",
"C+	c #145719",
"D+	c #018939",
"E+	c #008336",
"F+	c #79AC69",
"G+	c #61864C",
"H+	c #79AD6A",
"I+	c #84BE77",
"J+	c #516D3A",
"K+	c #2A2C0A",
"L+	c #306825",
"M+	c #3CAA45",
"N+	c #4CBA50",
"O+	c #007C35",
"P+	c #48A558",
"Q+	c #5CB664",
"R+	c #135718",
"S+	c #187824",
"T+	c #008439",
"U+	c #007632",
"V+	c #097430",
"W+	c #252706",
"X+	c #2A2E0B",
"Y+	c #99DF90",
"Z+	c #A2EB99",
"`+	c #94E28E",
" @	c #459743",
".@	c #242A07",
"+@	c #229D41",
"@@	c #50B756",
"#@	c #53AB61",
"$@	c #7DC781",
"%@	c #1B7922",
"&@	c #299A39",
"*@	c #3FB145",
"=@	c #3AA440",
"-@	c #405125",
";@	c #415226",
">@	c #3A461C",
",@	c #2E7B2B",
"'@	c #348131",
")@	c #1E340B",
"!@	c #00913E",
"~@	c #3B9D53",
"{@	c #7BC581",
"]@	c #155B1A",
"^@	c #1B7721",
"/@	c #239E3C",
"(@	c #209B3F",
"_@	c #3BA440",
":@	c #62874E",
"<@	c #62884E",
"[@	c #69C369",
"}@	c #308731",
"|@	c #2A4413",
"1@	c #252A07",
"2@	c #2A4312",
"3@	c #096C2A",
"4@	c #00702D",
"5@	c #6DBB77",
"6@	c #81C686",
"7@	c #155C19",
"8@	c #088835",
"9@	c #00933F",
"0@	c #0F8738",
"a@	c #39A040",
"b@	c #2D9635",
"c@	c #A5EE9C",
"d@	c #86D582",
"e@	c #3D9E43",
"f@	c #3AA241",
"g@	c #3BA240",
"h@	c #118838",
"i@	c #04893A",
"j@	c #008238",
"k@	c #3AAA40",
"l@	c #58B75C",
"m@	c #76C27C",
"n@	c #83C789",
"o@	c #185D18",
"p@	c #048837",
"q@	c #047C35",
"r@	c #41AD45",
"s@	c #2F9837",
"t@	c #99E492",
"u@	c #4DA951",
"v@	c #359E3D",
"w@	c #40AD46",
"x@	c #3EAF45",
"y@	c #43B246",
"z@	c #008F3E",
"A@	c #019540",
"B@	c #299749",
"C@	c #78C47D",
"D@	c #84C98A",
"E@	c #0D7429",
"F@	c #00843A",
"G@	c #1E8F3B",
"H@	c #3EAE46",
"I@	c #2E9837",
"J@	c #A4EE9C",
"K@	c #62B962",
"L@	c #309839",
"M@	c #41AB44",
"N@	c #1A9D41",
"O@	c #06903D",
"P@	c #40B347",
"Q@	c #3CB047",
"R@	c #019541",
"S@	c #008739",
"T@	c #328F50",
"U@	c #8ACC8E",
"V@	c #186C1F",
"W@	c #1B8526",
"X@	c #34A540",
"Y@	c #3CB046",
"Z@	c #2E9436",
"`@	c #A8F09F",
" #	c #76C974",
".#	c #34983B",
"+#	c #3DA744",
"@#	c #3FAE45",
"##	c #019740",
"$#	c #038B3C",
"%#	c #2AA035",
"&#	c #309F3F",
"*#	c #198840",
"=#	c #2B8A4C",
"-#	c #8FD092",
";#	c #186C1E",
">#	c #1E8425",
",#	c #259D35",
"'#	c #34AB44",
")#	c #A4ED9B",
"!#	c #8BDA86",
"~#	c #3F9F45",
"{#	c #39A340",
"]#	c #3EB146",
"^#	c #45B748",
"/#	c #01913E",
"(#	c #007D36",
"_#	c #40A948",
":#	c #65BB6D",
"<#	c #86CB89",
"[#	c #8FCF93",
"}#	c #186D1F",
"|#	c #167E27",
"1#	c #00883A",
"2#	c #31A040",
"3#	c #2D9436",
"4#	c #9CE795",
"5#	c #52AD55",
"6#	c #339B3B",
"7#	c #3CAB44",
"8#	c #31A944",
"9#	c #109941",
"0#	c #2AA543",
"a#	c #41B448",
"b#	c #12913D",
"c#	c #008C3C",
"d#	c #028E3D",
"e#	c #19863F",
"f#	c #76C47A",
"g#	c #87CB8C",
"h#	c #8CCC91",
"i#	c #1B7822",
"j#	c #008039",
"k#	c #006F31",
"l#	c #40B146",
"m#	c #B1F7A7",
"n#	c #67BD67",
"o#	c #319739",
"p#	c #3DA944",
"q#	c #3DAF46",
"r#	c #3DB246",
"s#	c #009440",
"t#	c #198E33",
"u#	c #2E9F3A",
"v#	c #3B9F4D",
"w#	c #45A05A",
"x#	c #6FBA7A",
"y#	c #8ACB90",
"z#	c #1A7621",
"A#	c #1E8727",
"B#	c #259B2E",
"C#	c #40B148",
"D#	c #39A440",
"E#	c #3CA142",
"F#	c #3DA844",
"G#	c #269E41",
"H#	c #018E3E",
"I#	c #369C4A",
"J#	c #66BB6E",
"K#	c #7DC683",
"L#	c #88CA8E",
"M#	c #8BCB91",
"N#	c #189131",
"O#	c #42B548",
"P#	c #22A142",
"Q#	c #00903E",
"R#	c #158F3C",
"S#	c #3CB042",
"T#	c #3CAC43",
"U#	c #0E883A",
"V#	c #00762F",
"W#	c #1D8543",
"X#	c #88CB8D",
"Y#	c #8DCC91",
"Z#	c #1D8023",
"`#	c #00722F",
" $	c #3FAE49",
".$	c #32A346",
"+$	c #54BE58",
"@$	c #0F8F3F",
"#$	c #038F3E",
"$$	c #0C7F37",
"%$	c #61BC65",
"&$	c #6BBE70",
"*$	c #74C07A",
"=$	c #86CA89",
"-$	c #8DCE91",
";$	c #8BCA90",
">$	c #2BA232",
",$	c #57B75D",
"'$	c #35944F",
")$	c #6BBF70",
"!$	c #62B66C",
"~$	c #449D5B",
"{$	c #6AB776",
"]$	c #83C888",
"^$	c #86CA8B",
"/$	c #87CB8D",
"($	c #40AB48",
"_$	c #67BC6D",
":$	c #78C37E",
"<$	c #7EC684",
"[$	c #81C886",
"}$	c #81C688",
"        . + @ # $ % .                                           ",
"      . & * = - ; > , ' ) $ %                                   ",
"      ! ~ { ] ^ / ( _ : < [ } | @                               ",
"    . 1 2 3 4 5 6 7 8 9 0 a b c d , e                           ",
"    f g h i j k l m n o p a q r s t u , v                       ",
"    w x y z A B C D E z F 6 G H I J K L M N                     ",
"  @ O P Q R A S T U V W X Y Z `  .....+.@.#.$.                  ",
"  . $.%.&.*.A S =.=.-.;.>.,.'.). .a !.~.{.].^./.(.              ",
"  _.:.<.[.}.A S =.=.=.=.|.1.2.3.4.5.6.7.8.9.0.a.b.c.            ",
"  d.0 e.f.g.A S =.=.=.=.=.h.i.j.k.l.m.n.o.a a p.q.r.s.          ",
"  t.u...v.w.x.y.=.=.=.=.=.=.=.z.A.B.C.D.E.F.G.H.I.J.K.L.        ",
"M.N.O.P.Q.R.S.T.=.=.=.=.=.=.=.=.=.-.U.V.W.X.Y.Z.`. +.+++@+      ",
"#+$+%+&+*+=+=+=+=+=+=.=+=+=+-+=.-+=+=+=+;+>+,+'+)+!+~+{+]+^+    ",
"e /+(+_+:+=+=+y.=.=.=.=+=+=+<+=.[+=+=+=+h.}+=+|+1+=+2+3+4+5+    ",
"' 6+7+8+9+=+=+y.=.=.=.=+=+0+a+=.b+c+=+=+=.d+=+e+f+g+h+i+j+k+l+  ",
"m+n+u.O.o+=+=+=+=+=+=.=+=+p+q+r+q+s+=+=+=.t+=+q+u+v+w+x+y+z+A+B+",
"C+D+a  .E+=+=+T.=.=.=.=+=+F+=+G+=+H+=+=+=.=.I+J+K+=+L+M+N+O+P+Q+",
"R+S+T+U+V+=+=+T.=.=.=.=+=+r+W+X+W+Y+=+=+=.=.Z+`+ @=+.@+@@@#@$@  ",
"N %@&@*@=@=+=+T.=.=.=.=+=+=.-@=+;@=.=+=+h.>@=+,@'@=+)@!@~@{@    ",
"]@^@/@(@_@=+=+T.=.=.=.=+=+=.:@=+<@=.=+=+[@}@|@1@'+2@3@4@5@6@    ",
"7@8@0.9@0@a@b@y.=.=.=.=.=.=.=.=.h.c@d@e@f@g@h@i@j@k@l@m@n@      ",
"o@p@a a q@r@s@S =.=.=.=.=.=.=.=.t@u@v@w@x@y@z@!.A@B@C@D@        ",
"  E@F@F.G@H@I@S =.=.=.=.=.-.J@K@L@M@N@O@P@Q@F@R@S@T@U@          ",
"  V@W@X@Y@}.Z@S =.=.=.T `@ #.#+#@#z@..##$#%#&#*#=#-#            ",
"  ;#>#,#'#*.A S =.h.)#!#~#{#@#]#^#/#a a (#_#:#<#[#              ",
"  }#|#/ 1#2#3#S h.4#5#6#7#8#9#0#a#b#c#d#e#f#g#h#                ",
"    i#j#k#l#A m#n#o#p#q#r#s#.. .t#u#v#w#x#y#                    ",
"    z#A#B#C#D#E#F#4 P@&.G#s#0 H#I#J#K#L#M#                      ",
"      l+N#O#3 R P#Q#R#S#T#U#V#W#x#X#Y#                          ",
"      Z#`# $.$+$@$#$$$%$&$*$=$-$;$                              ",
"      J.>$,$'$)$!$~${$]$^$/$                                    ",
"        ($_$:$<$[$}$                                            "};
