/* XPM */
static const char * fmslogo_48x48_xpm[] = {
"48 48 887 2",
"  	c None",
". 	c #114F16",
"+ 	c #125016",
"@ 	c #0D6222",
"# 	c #0E5A1E",
"$ 	c #135317",
"% 	c #125317",
"& 	c #135217",
"* 	c #145116",
"= 	c #135016",
"- 	c #125017",
"; 	c #115016",
"> 	c #124F16",
", 	c #136523",
"' 	c #017933",
") 	c #086F2E",
"! 	c #297A2D",
"~ 	c #247428",
"{ 	c #0F7A2C",
"] 	c #097A2E",
"^ 	c #0F6A24",
"/ 	c #155F1A",
"( 	c #145A1A",
"_ 	c #145618",
": 	c #125117",
"< 	c #124F17",
"[ 	c #056E2C",
"} 	c #1C8034",
"| 	c #1B8436",
"1 	c #2D973D",
"2 	c #3CA642",
"3 	c #349F3F",
"4 	c #009440",
"5 	c #009640",
"6 	c #00843A",
"7 	c #1A7E27",
"8 	c #1C7922",
"9 	c #19721F",
"0 	c #156D21",
"a 	c #106C23",
"b 	c #13601E",
"c 	c #12581A",
"d 	c #135318",
"e 	c #125116",
"f 	c #145518",
"g 	c #157128",
"h 	c #31993E",
"i 	c #40B146",
"j 	c #40B247",
"k 	c #41B147",
"l 	c #1E963E",
"m 	c #008B3C",
"n 	c #00903E",
"o 	c #007D35",
"p 	c #26953A",
"q 	c #2FA137",
"r 	c #23922A",
"s 	c #079039",
"t 	c #009741",
"u 	c #02903C",
"v 	c #058133",
"w 	c #155E1B",
"x 	c #134F15",
"y 	c #165D1A",
"z 	c #2E8B32",
"A 	c #3DAC44",
"B 	c #3EAF46",
"C 	c #3CA943",
"D 	c #3AA743",
"E 	c #0D8336",
"F 	c #007331",
"G 	c #097733",
"H 	c #32A342",
"I 	c #42B547",
"J 	c #1FA040",
"K 	c #009540",
"L 	c #008F3D",
"M 	c #0D7F2E",
"N 	c #1B7B22",
"O 	c #197020",
"P 	c #16641C",
"Q 	c #155B1A",
"R 	c #135418",
"S 	c #115017",
"T 	c #0B6C27",
"U 	c #098535",
"V 	c #158E3B",
"W 	c #33A542",
"X 	c #3EAF45",
"Y 	c #3AA642",
"Z 	c #43A748",
"` 	c #3EA144",
" .	c #359C3E",
"..	c #29923B",
"+.	c #3EAD45",
"@.	c #3FB246",
"#.	c #38AC45",
"$.	c #058F3D",
"%.	c #008E3D",
"&.	c #0C8631",
"*.	c #20932A",
"=.	c #1F8C27",
"-.	c #1D8124",
";.	c #1A7320",
">.	c #18671C",
",.	c #145B19",
"'.	c #125417",
").	c #125216",
"!.	c #115419",
"~.	c #038B3A",
"{.	c #009841",
"].	c #008B3B",
"^.	c #24993E",
"/.	c #39A140",
"(.	c #6FC56E",
"_.	c #89D884",
":.	c #5AB45B",
"<.	c #399D3F",
"[.	c #38A240",
"}.	c #3CAA43",
"|.	c #3CAD45",
"1.	c #1B943D",
"2.	c #00933F",
"3.	c #00903D",
"4.	c #008338",
"5.	c #0A8030",
"6.	c #219B2B",
"7.	c #219A2C",
"8.	c #1D942C",
"9.	c #188D2C",
"0.	c #13832B",
"a.	c #127325",
"b.	c #145A19",
"c.	c #125518",
"d.	c #114E15",
"e.	c #0D5C1E",
"f.	c #008D3D",
"g.	c #008137",
"h.	c #178838",
"i.	c #3CAB44",
"j.	c #38A040",
"k.	c #6DC26C",
"l.	c #A2EC9A",
"m.	c #9DE896",
"n.	c #86D581",
"o.	c #44A349",
"p.	c #349C3C",
"q.	c #3BA542",
"r.	c #3CAA44",
"s.	c #158E3A",
"t.	c #007C35",
"u.	c #007532",
"v.	c #0D7D35",
"w.	c #2E9F40",
"x.	c #37AC3F",
"y.	c #0D9538",
"z.	c #02953E",
"A.	c #02963F",
"B.	c #01933F",
"C.	c #048637",
"D.	c #1A7D25",
"E.	c #196F20",
"F.	c #16621C",
"G.	c #145B1A",
"H.	c #145819",
"I.	c #125519",
"J.	c #08732C",
"K.	c #017A34",
"L.	c #0D7C35",
"M.	c #35A643",
"N.	c #3EAC45",
"O.	c #A1EB99",
"P.	c #A0EA98",
"Q.	c #A3EC9A",
"R.	c #6CC16B",
"S.	c #3E9F43",
"T.	c #399F40",
"U.	c #38A341",
"V.	c #1B8637",
"W.	c #32A141",
"X.	c #41B548",
"Y.	c #40B447",
"Z.	c #42B548",
"`.	c #04933F",
" +	c #148A2D",
".+	c #1F8826",
"++	c #186C1E",
"@+	c #16611B",
"#+	c #145919",
"$+	c #1D7624",
"%+	c #258F39",
"&+	c #3DAF46",
"*+	c #40B448",
"=+	c #3DAC45",
"-+	c #A3ED9B",
";+	c #91DE8B",
">+	c #62BA63",
",+	c #3B9E41",
"'+	c #38A13F",
")+	c #3DAE45",
"!+	c #3FB146",
"~+	c #37AD45",
"{+	c #00923F",
"]+	c #00913E",
"^+	c #048034",
"/+	c #21962A",
"(+	c #208F28",
"_+	c #1D8224",
":+	c #1A731F",
"<+	c #17651C",
"[+	c #155E1A",
"}+	c #25852C",
"|+	c #3FB347",
"1+	c #3FB247",
"2+	c #9FE997",
"3+	c #90DD8A",
"4+	c #52AD55",
"5+	c #349A3C",
"6+	c #3AA341",
"7+	c #259B3F",
"8+	c #008C3D",
"9+	c #00943F",
"0+	c #00873A",
"a+	c #20972E",
"b+	c #239A2A",
"c+	c #219329",
"d+	c #12892D",
"e+	c #117A29",
"f+	c #18691E",
"g+	c #15611B",
"h+	c #2C9134",
"i+	c #A4ED9C",
"j+	c #79CB76",
"k+	c #41A146",
"l+	c #3AA040",
"m+	c #2A953C",
"n+	c #097E36",
"o+	c #018639",
"p+	c #008539",
"q+	c #057733",
"r+	c #32A441",
"s+	c #3EB346",
"t+	c #1F9D37",
"u+	c #05953C",
"v+	c #009541",
"w+	c #117E2A",
"x+	c #186D1F",
"y+	c #17641C",
"z+	c #124E15",
"A+	c #0E6320",
"B+	c #0F7C2C",
"C+	c #19963C",
"D+	c #1A993F",
"E+	c #31A643",
"F+	c #A4ED9B",
"G+	c #99E592",
"H+	c #41A245",
"I+	c #329A3C",
"J+	c #228F3A",
"K+	c #097C34",
"L+	c #077732",
"M+	c #31A241",
"N+	c #39AF46",
"O+	c #02923F",
"P+	c #008D3C",
"Q+	c #0E782A",
"R+	c #19701F",
"S+	c #17671D",
"T+	c #124E16",
"U+	c #058436",
"V+	c #138E3C",
"W+	c #41B447",
"X+	c #38A03F",
"Y+	c #97E390",
"Z+	c #61B962",
"`+	c #34993B",
" @	c #349D3E",
".@	c #35A140",
"+@	c #3EAE45",
"@@	c #3EB146",
"#@	c #3BB046",
"$@	c #0C963F",
"%@	c #00893B",
"&@	c #06772F",
"*@	c #1E8225",
"=@	c #1A7420",
"-@	c #186A1D",
";@	c #17661C",
">@	c #11561A",
",@	c #018D3C",
"'@	c #04873A",
")@	c #35A642",
"!@	c #3BA943",
"~@	c #379C3E",
"{@	c #87D682",
"]@	c #48A64D",
"^@	c #3A9F40",
"/@	c #39A441",
"(@	c #15943E",
"_@	c #008C3C",
":@	c #007834",
"<@	c #18882D",
"[@	c #219128",
"}@	c #1E8325",
"|@	c #1A7621",
"1@	c #0D5F20",
"2@	c #018F3D",
"3@	c #00913F",
"4@	c #007D36",
"5@	c #218B39",
"6@	c #39A440",
"7@	c #35993C",
"8@	c #6ABF6A",
"9@	c #76C974",
"0@	c #47A64C",
"a@	c #359C3D",
"b@	c #3AA542",
"c@	c #24923B",
"d@	c #0A7C34",
"e@	c #037632",
"f@	c #006E2F",
"g@	c #086D2E",
"h@	c #38A23D",
"i@	c #24942C",
"j@	c #1F8E27",
"k@	c #1E8525",
"l@	c #1C7921",
"m@	c #196E1F",
"n@	c #0D5D1F",
"o@	c #018137",
"p@	c #007F36",
"q@	c #056F2E",
"r@	c #2E923B",
"s@	c #389E3F",
"t@	c #369D3D",
"u@	c #6ABF69",
"v@	c #9AE593",
"w@	c #6DC26D",
"x@	c #35983C",
"y@	c #34983C",
"z@	c #33973B",
"A@	c #31943C",
"B@	c #2D903A",
"C@	c #31923B",
"D@	c #389B3E",
"E@	c #349A3B",
"F@	c #27932D",
"G@	c #1A8E2B",
"H@	c #10842E",
"I@	c #1A7922",
"J@	c #1A7020",
"K@	c #146D21",
"L@	c #067F33",
"M@	c #087531",
"N@	c #329C3E",
"O@	c #369F3D",
"P@	c #379B3E",
"Q@	c #379D3E",
"R@	c #6AC069",
"S@	c #A3EC9B",
"T@	c #95E18E",
"U@	c #51AB54",
"V@	c #35953B",
"W@	c #33943A",
"X@	c #37973C",
"Y@	c #128839",
"Z@	c #008F3F",
"`@	c #0F812E",
" #	c #1B7A22",
".#	c #1A721F",
"+#	c #218E2A",
"@#	c #24943A",
"##	c #37A742",
"$#	c #3AAA41",
"%#	c #35A33C",
"&#	c #252504",
"*#	c #6E9B5C",
"=#	c #6F9C5E",
"-#	c #9AE192",
";#	c #5A7A43",
">#	c #303813",
",#	c #282B08",
"'#	c #303D13",
")#	c #376729",
"!#	c #2F8E35",
"~#	c #33953A",
"{#	c #37993E",
"]#	c #399A3E",
"^#	c #0E8538",
"/#	c #008E3C",
"(#	c #007934",
"_#	c #198127",
":#	c #1A7521",
"<#	c #21922C",
"[#	c #3AAE43",
"}#	c #3FAF45",
"|#	c #3AA840",
"1#	c #359F3C",
"2#	c #45592C",
"3#	c #465B2C",
"4#	c #55723E",
"5#	c #4D743A",
"6#	c #37963D",
"7#	c #319239",
"8#	c #389A3D",
"9#	c #147E35",
"0#	c #007A35",
"a#	c #0C7C32",
"b#	c #219229",
"c#	c #1E8625",
"d#	c #1B7722",
"e#	c #165E1A",
"f#	c #1A7A23",
"g#	c #04923C",
"h#	c #03923F",
"i#	c #17983F",
"j#	c #2A983E",
"k#	c #32963B",
"l#	c #6AC16A",
"m#	c #343E16",
"n#	c #252706",
"o#	c #96DB8C",
"p#	c #2A2E0B",
"q#	c #83BC76",
"r#	c #9DE594",
"s#	c #78AB68",
"t#	c #9FE897",
"u#	c #5CB25E",
"v#	c #39973E",
"w#	c #34993D",
"x#	c #28913A",
"y#	c #137D34",
"z#	c #37A642",
"A#	c #35A73D",
"B#	c #20902A",
"C#	c #1D8626",
"D#	c #1C7F24",
"E#	c #098834",
"F#	c #009641",
"G#	c #008237",
"H#	c #107C33",
"I#	c #5F824A",
"J#	c #709D5E",
"K#	c #5F834A",
"L#	c #303712",
"M#	c #5D8047",
"N#	c #93D588",
"O#	c #89D784",
"P#	c #5AB35B",
"Q#	c #389D3E",
"R#	c #3CA741",
"S#	c #39AA44",
"T#	c #22942D",
"U#	c #1F9028",
"V#	c #209128",
"W#	c #0D7027",
"X#	c #01943F",
"Y#	c #00933E",
"Z#	c #008A39",
"`#	c #0F8336",
" $	c #89C67D",
".$	c #252605",
"+$	c #262705",
"@$	c #56733F",
"#$	c #2D320D",
"$$	c #9DE695",
"%$	c #9EE896",
"&$	c #8BDA85",
"*$	c #47AB4C",
"=$	c #3DAD46",
"-$	c #309F43",
";$	c #4AB54F",
">$	c #34A43C",
",$	c #37A640",
"'$	c #135419",
")$	c #09732A",
"!$	c #0F8436",
"~$	c #97DC8D",
"{$	c #435527",
"]$	c #8DCC82",
"^$	c #445729",
"/$	c #94D78A",
"($	c #5C7E46",
"_$	c #333C15",
":$	c #5B7B44",
"<$	c #93DF8D",
"[$	c #58B259",
"}$	c #37A13E",
"|$	c #3DAB45",
"1$	c #42B44A",
"2$	c #3AAB4D",
"3$	c #399D4E",
"4$	c #5BB861",
"5$	c #15651E",
"6$	c #068234",
"7$	c #00923E",
"8$	c #008B3A",
"9$	c #007D34",
"0$	c #107A33",
"a$	c #99DF8F",
"b$	c #6C9759",
"c$	c #405124",
"d$	c #6D995B",
"e$	c #98DE8F",
"f$	c #8ECD83",
"g$	c #62874D",
"h$	c #2C310E",
"i$	c #95E38F",
"j$	c #69C369",
"k$	c #3BA042",
"l$	c #379E3D",
"m$	c #3FAA44",
"n$	c #42B148",
"o$	c #4AB751",
"p$	c #42AB53",
"q$	c #0D7A37",
"r$	c #4BA35E",
"s$	c #73C278",
"t$	c #135517",
"u$	c #17661D",
"v$	c #197F26",
"w$	c #027F35",
"x$	c #017130",
"y$	c #137932",
"z$	c #298B38",
"A$	c #93D689",
"B$	c #95D98B",
"C$	c #9AE191",
"D$	c #343D16",
"E$	c #75A664",
"F$	c #7FB670",
"G$	c #2B2F0C",
"H$	c #6EC86D",
"I$	c #41A647",
"J$	c #399F3F",
"K$	c #269C3F",
"L$	c #159940",
"M$	c #12903D",
"N$	c #4DB554",
"O$	c #5BB662",
"P$	c #6ABB73",
"Q$	c #7BC480",
"R$	c #135618",
"S$	c #1D8024",
"T$	c #209031",
"U$	c #27963E",
"V$	c #3BAB43",
"W$	c #3CA541",
"X$	c #369A3D",
"Y$	c #44582A",
"Z$	c #9CE493",
"`$	c #658B51",
" %	c #335B21",
".%	c #39A240",
"+%	c #2D9848",
"@%	c #70C175",
"#%	c #7DC682",
"$%	c #7EC584",
"%%	c #1C7E24",
"&%	c #2F9F36",
"*%	c #3EB147",
"=%	c #3AA741",
"-%	c #379F3E",
";%	c #364118",
">%	c #262806",
",%	c #29320C",
"'%	c #2C581C",
")%	c #35993B",
"!%	c #37A442",
"~%	c #008136",
"{%	c #188140",
"]%	c #80C786",
"^%	c #1D7C22",
"/%	c #1B9736",
"(%	c #07933F",
"_%	c #1E993E",
":%	c #3BA541",
"<%	c #389F3F",
"[%	c #A2EB9A",
"}%	c #58B65A",
"|%	c #3CA142",
"1%	c #399E3F",
"2%	c #3A9E3F",
"3%	c #369C3E",
"4%	c #3BA842",
"5%	c #40AE47",
"6%	c #178B37",
"7%	c #007731",
"8%	c #0A7636",
"9%	c #71BD7A",
"0%	c #83C988",
"a%	c #15681E",
"b%	c #0A8934",
"c%	c #118B3A",
"d%	c #349C3E",
"e%	c #6BC06A",
"f%	c #9CE794",
"g%	c #80D07C",
"h%	c #3E9F44",
"i%	c #379E3E",
"j%	c #248F3A",
"k%	c #148A39",
"l%	c #098939",
"m%	c #028538",
"n%	c #279A3F",
"o%	c #39A941",
"p%	c #46AE4D",
"q%	c #5AB363",
"r%	c #71BE79",
"s%	c #84C989",
"t%	c #0E7027",
"u%	c #008238",
"v%	c #1D8A39",
"w%	c #38A23F",
"x%	c #6DC36C",
"y%	c #81D17D",
"z%	c #53AF56",
"A%	c #39A340",
"B%	c #3BA843",
"C%	c #3CA843",
"D%	c #3DA943",
"E%	c #048A3A",
"F%	c #098B39",
"G%	c #42AB4B",
"H%	c #61B967",
"I%	c #79C47E",
"J%	c #84C988",
"K%	c #136921",
"L%	c #018E3C",
"M%	c #009740",
"N%	c #028037",
"O%	c #2D9D3F",
"P%	c #6EC46D",
"Q%	c #98E291",
"R%	c #55B058",
"S%	c #3FAE46",
"T%	c #3EB046",
"U%	c #3EB045",
"V%	c #008F3E",
"W%	c #008638",
"X%	c #3D9F54",
"Y%	c #7AC57F",
"Z%	c #83C989",
"`%	c #86CA8B",
" &	c #16651C",
".&	c #058034",
"+&	c #00863A",
"@&	c #077B34",
"#&	c #6DC46D",
"$&	c #A0EA99",
"%&	c #9BE593",
"&&	c #71C570",
"*&	c #36993D",
"=&	c #3BA742",
"-&	c #33A743",
";&	c #0E943E",
">&	c #229F41",
",&	c #3EB347",
"'&	c #36AC45",
")&	c #008A3B",
"!&	c #007B34",
"~&	c #389454",
"{&	c #87CB8C",
"]&	c #88CA8D",
"^&	c #18661C",
"/&	c #0F7126",
"(&	c #097B2E",
"_&	c #0E8233",
":&	c #128437",
"<&	c #21913B",
"[&	c #77CA75",
"}&	c #49A84D",
"|&	c #359C3C",
"1&	c #34A643",
"2&	c #1B9E41",
"3&	c #029440",
"4&	c #199A3F",
"5&	c #2FA53C",
"6&	c #0E8734",
"7&	c #008337",
"8&	c #008739",
"9&	c #349252",
"0&	c #85C98A",
"a&	c #89CB8E",
"b&	c #1C8325",
"c&	c #26982F",
"d&	c #3BAE44",
"e&	c #3EB247",
"f&	c #8BD986",
"g&	c #4AA74E",
"h&	c #3A9E41",
"i&	c #39A241",
"j&	c #1C9C40",
"k&	c #0E8735",
"l&	c #2BA035",
"m&	c #38A641",
"n&	c #45A953",
"o&	c #248B46",
"p&	c #2A894B",
"q&	c #86C98B",
"r&	c #8ACB8E",
"s&	c #186F1F",
"t&	c #33A940",
"u&	c #65BC65",
"v&	c #34983B",
"w&	c #40B347",
"x&	c #25A342",
"y&	c #108335",
"z&	c #3EA947",
"A&	c #57B55F",
"B&	c #70C076",
"C&	c #85CB89",
"D&	c #8ECF91",
"E&	c #1C7C23",
"F&	c #178E2E",
"G&	c #06943D",
"H&	c #09923E",
"I&	c #2BA141",
"J&	c #9BE693",
"K&	c #6EC36D",
"L&	c #41A246",
"M&	c #3BA743",
"N&	c #3BAB44",
"O&	c #31A744",
"P&	c #2FA844",
"Q&	c #03933E",
"R&	c #309847",
"S&	c #61BA67",
"T&	c #76C37C",
"U&	c #84CA8A",
"V&	c #8ACC8F",
"W&	c #187823",
"X&	c #058C39",
"Y&	c #0C8337",
"Z&	c #39A843",
"`&	c #7CCD79",
" *	c #42A248",
".*	c #399E40",
"+*	c #3AA442",
"@*	c #3CAC44",
"#*	c #40B045",
"$*	c #149C41",
"%*	c #039540",
"&*	c #0B9740",
"**	c #1E9D40",
"=*	c #37AB44",
"-*	c #3CAF47",
";*	c #048238",
">*	c #008439",
",*	c #087A36",
"'*	c #66B96E",
")*	c #7DC683",
"!*	c #88CB8D",
"~*	c #8BCC90",
"{*	c #196F1F",
"]*	c #1A7522",
"^*	c #0A8332",
"/*	c #008138",
"(*	c #188A39",
"_*	c #39A040",
":*	c #6EC36C",
"<*	c #90DE8B",
"[*	c #56B057",
"}*	c #3EB246",
"|*	c #24A443",
"1*	c #019640",
"2*	c #0C8133",
"3*	c #30A736",
"4*	c #229238",
"5*	c #238E3F",
"6*	c #248C43",
"7*	c #1E8442",
"8*	c #3C9555",
"9*	c #89CC8D",
"0*	c #8ECD93",
"a*	c #147A27",
"b*	c #0B7E2E",
"c*	c #0D802E",
"d*	c #2B9C3D",
"e*	c #3EAE46",
"f*	c #60BA62",
"g*	c #67BE67",
"h*	c #369E3E",
"i*	c #3DAD45",
"j*	c #02913E",
"k*	c #118535",
"l*	c #41AD47",
"m*	c #52B357",
"n*	c #65BC6A",
"o*	c #77C47B",
"p*	c #86CC89",
"q*	c #8DCE90",
"r*	c #8CCC91",
"s*	c #1A7520",
"t*	c #1C7D23",
"u*	c #1F8B28",
"v*	c #23982B",
"w*	c #37AB3F",
"x*	c #3CA543",
"y*	c #37A844",
"z*	c #3BAD45",
"A*	c #41B347",
"B*	c #40B348",
"C*	c #3BAF47",
"D*	c #0B903D",
"E*	c #00953F",
"F*	c #228C42",
"G*	c #68BE6D",
"H*	c #74C27A",
"I*	c #81C786",
"J*	c #8CCD91",
"K*	c #1B7A23",
"L*	c #1E8726",
"M*	c #20952C",
"N*	c #35AA40",
"O*	c #3EAD44",
"P*	c #0C9740",
"Q*	c #1C993F",
"R*	c #3BAE46",
"S*	c #3CAF44",
"T*	c #279D3F",
"U*	c #028739",
"V*	c #008538",
"W*	c #037F37",
"X*	c #087836",
"Y*	c #409858",
"Z*	c #8CCC90",
"`*	c #8DCC92",
" =	c #1C7A22",
".=	c #1B8226",
"+=	c #037F35",
"@=	c #178A3A",
"#=	c #43B54A",
"$=	c #44B54A",
"%=	c #10943E",
"&=	c #29963E",
"*=	c #41AC49",
"==	c #4AAF52",
"-=	c #57B55D",
";=	c #31954E",
">=	c #329250",
",=	c #53A766",
"'=	c #75BD7F",
")=	c #8CCD8F",
"!=	c #0D7D2D",
"~=	c #1E8D37",
"{=	c #4CB954",
"]=	c #2D9D45",
"^=	c #36A14B",
"/=	c #56BE5D",
"(=	c #33A24D",
"_=	c #008438",
":=	c #037833",
"<=	c #4CA85B",
"[=	c #68BD6E",
"}=	c #78C37D",
"|=	c #7CC482",
"1=	c #83C788",
"2=	c #89CC8E",
"3=	c #1F8927",
"4=	c #24992C",
"5=	c #3BAB42",
"6=	c #5BBA61",
"7=	c #288D46",
"8=	c #36964F",
"9=	c #63BB69",
"0=	c #61B868",
"a=	c #238945",
"b=	c #248846",
"c=	c #419A5A",
"d=	c #76C17D",
"e=	c #80C885",
"f=	c #8BCB8E",
"g=	c #2DA236",
"h=	c #4BB053",
"i=	c #63BA6A",
"j=	c #72C277",
"k=	c #7CC682",
"l=	c #81C986",
"m=	c #86CB8A",
"n=	c #88CC8C",
"o=	c #40AA48",
"p=	c #58B55F",
"q=	c #6CBF73",
"r=	c #79C37E",
"s=	c #7FC785",
"t=	c #82C887",
"            . . . . . . . .                                                                     ",
"          . . + @ # $ % & * = - ; . >                                                           ",
"          > & , ' ) ! ~ { ] ^ / ( _ $ : < + >                                                   ",
"        . = [ } | 1 2 3 4 5 6 7 8 9 0 a b c d e >                                               ",
"        . f g h i j k l m n o p q r s t u v ^ w _ & +                                           ",
"      . x y z A B A C D E F G H I J K 5 5 L M N O P Q R :                                       ",
"      S T U V W X Y Z `  ...+.@.#.$.K 5 5 %.&.*.=.-.;.>.,.'.).                                  ",
"      !.~.{.].^.+./.(._.:.<.[.}.|.1.m 2.3.4.5.6.7.8.9.0.a.P b.c.                                ",
"    d.e.f.3.g.h.i.j.k.l.m.n.o.p.q.r.s.t.u.v.w.x.y.z.A.B.C.D.E.F.G.H.                            ",
"    > I.J.K.L.M.N.j.k.O.P.O.Q.R.S.T.U.V.W.X.Y.Z.`.5 5 5 f. +.+8 ++@+b.                          ",
"    > #+$+%+&+*+=+j.k.O.P.P.P.-+;+>+,+'+}.)+!+~+{+5 5 5 ]+^+/+(+_+:+<+[+                        ",
"    - w }+i.|+1+=+j.k.O.P.P.P.P.O.2+3+4+5+6+N.7+8+K 5 9+0+F a+b+c+d+e+f+g+                      ",
"  > & <+h+X |+1+=+j.k.O.P.P.P.P.P.P.P.i+j+k+l+m+n+o+f.p+q+r+s+t+u+v+3.w+x+y+                    ",
"  z+A+B+C+D+E+*+=+j.k.O.P.P.P.P.P.P.P.P.F+G+R.H+I+J+K+L+M+Y.N+O+5 5 5 P+Q+R+S+                  ",
"  T+U+5 5 n V+W+=+X+k.O.P.P.P.P.P.P.P.P.P.P.P.Y+Z+`+ @.@+@@@#@$@5 5 K %@&@*@=@-@;@              ",
"  >@,@5 5 4 '@)@!@~@R.O.P.P.P.P.P.P.P.P.P.P.P.P.Q.{@]@^@/@}.|.(@_@L _@:@<@[@}@|@++              ",
"  1@2@5 5 3@4@5@6@7@8@O.P.P.P.P.P.P.P.P.P.P.P.P.P.Q.2+9@0@a@b@c@d@e@f@g@h@i@j@k@l@m@            ",
"  n@o@L n p@q@r@s@t@u@O.P.P.P.P.P.P.P.P.P.P.P.P.P.P.P.P.v@w@x@y@z@A@B@C@D@E@F@G@H@I@J@          ",
"> f K@L@t.M@N@O@P@Q@R@O.P.P.P.P.P.P.P.P.P.P.P.P.P.P.P.P.P.S@T@U@V@W@x@P@P@X@Y@%.Z@`@ #;.        ",
"+ #+.#+#@###$#%#&#&#&#&#&#&#&#P.&#&#&#*#P.P.P.=#&#&#&#P.-#;#>#,#'#)#!#~#{#]#^#/#n (#_#N :#      ",
"e Q |@<#[#}#|#1#&#&#&#&#&#&#&#P.&#&#&#2#P.P.P.3#&#&#&#P.4#&#&#&#&#&#5#6#7#8#9#0#4@a#b#c#N d#    ",
": e#f#g#h#i#j#k#&#&#l#O.P.P.P.P.&#&#m#n#o#P.o#n#m#&#&#P.p#&#q#r#s#&#>#t#u#v#w#x#y#z#A#B#C#D#    ",
": @+E#F#5 n G#H#&#&#u@O.P.P.P.P.&#&#I#&#J#P.J#&#K#&#&#P.L#&#M#N#P.P.P.P.-+O#P#Q#R#+@S#a#T#U#V#  ",
"$ W#X#5 5 Y#Z#`#&#&#&#&#&#&#P.P.&#&# $.$3#P.3#+$ $&#&#P.@$&#&#&##$;#$$P.P.O.%$&$*$i.=$-$;$A#>$,$",
"'$)$3.5 5 ]+Z#!$&#&#&#&#&#&#P.P.&#&#~${$n#]$n#^$o#&#&#P./$($_$&#&#&#:$P.P.P.<$[$}$|$1$2$o 3$4$  ",
"R 5$6$3@7$8$9$0$&#&#8@O.P.P.P.P.&#&#a$b$&#c$&#d$e$&#&#P.P.P.P.f$g$&#h$i+i$j$k$l$m$n$o$p$q$r$s$  ",
"t$u$v$w$(#x$y$z$&#&#u@O.P.P.P.P.&#&#-#A$.$&#+$B$C$&#&#P.D$&#E$r#F$&#G$H$I$s@J$K$L$M$N$O$P$Q$    ",
"R$u$S$T$U$V$W$X$&#&#u@O.P.P.P.P.&#&#r#P.{$&#Y$P.Z$&#&#P.`$&#&#&#&#&# %t@s@s@.%m K %@+%@%#%$%    ",
"H.u$%%&%*%+@=%-%&#&#u@O.P.P.P.P.&#&#%$P.b$&#*#P.%$&#&#P.%$`$;%>%,%'%)%s@s@.%!%4.L ~%{%#%]%      ",
"b.S+^%/%(%_%:%<%X+X+8@O.P.P.P.P.P.P.P.P.P.P.P.P.P.P.P.P.[%P.}%|%s@J$1%2%3%4%5%6%7%8%9%0%        ",
",.a%b%5 5 %.c%d%/.'+e%O.P.P.P.P.P.P.P.P.P.P.P.P.P.P.O.f%g%h%i%<%s@j%k%l%m%n%o%p%q%r%s%          ",
"  t%{+5 5 4 u%v%6+w%x%O.P.P.P.P.P.P.P.P.P.P.P.P.O.[%y%z%5+A%B%C%D%E%%.n ]+F%G%H%I%J%            ",
"  K%L%M%M%{+N%O%C%.%P%O.P.P.P.P.P.P.P.P.P.P.P.Q.Q%R%,+.%D%S%T%@.U%V%K 5 K W%X%Y%Z%`%            ",
"   &.&_@_@+&@&&+N.A%#&O.P.P.P.P.P.P.P.P.P.$&%&&&*&-%=&-&;&>&,&Y.'&)&2.K L !&~&{&]&              ",
"  ^&/&(&_&:&<&X.=+X+x%O.P.P.P.P.P.P.P.l.2+[&}&|&q.1&2&3&K n 4&#@5&6&7&8&t.9&0&a&                ",
"  S+O b&c&d&e&1+=+j.k.O.P.P.P.P.P.P.Q.f&g&h&i&}.)+j&9+5 5 5 L k&l&m&n&o&p&q&r&                  ",
"    s&S$V#t&N+|+N.j.k.O.P.P.P.P.P.Y+u&v&/.C%)+@@w&x&9+5 5 K )&y&z&A&B&C&D&                      ",
"    m@E&F&G&H&I&i.j.k.O.P.P.-+J&K&L&|&M&N&O&1+X.Y.P&Q&K 5 Y#o@R&S&T&U&V&                        ",
"    m@W&X&5 %.Y&Z&j.k.O.P.F+`& *.*+*@*#*$*%*&***=*-*;*>*8&4.,*'*)*!*~*                          ",
"    {*]*^*)&/*(*i._*:*P.<*[*7@6+r.)+}*|*1*5 5 _@2*3*4*5*6*7*8*9*V&0*                            ",
"      =@a*b*c*d*e*A%f*g*,+h*C%i*T%|+'&j*5 5 5 _@k*l*m*n*o*p*q*r*                                ",
"      s*t*u*v*w*B !@x*.%M&y*z*A*|+B*C*D*9+E*7$>*F*G*H*I*!*J*                                    ",
"        K*L*M*N*@.X i*O*=*P*V%Q*R*@.S*T*U*V*W*X*Y*C&!*Z*`*                                      ",
"         =.=+=@=*%#=#=$=%=2.9+u%&=*===-=;=>=,='=)=~*`*                                          ",
"          _+!=~={=]=^=/=(=_=_=:=<=[=B&}=|=1=2=r*                                                ",
"          3=4=5=6=7=8=9=0=a=b=c=d=e=0%`%!*f=                                                    ",
"            g=h=i=j=T&I%k=l=m=n=`%q&                                                            ",
"            o=p=q=r=#%s=t=                                                                      "};
