/* XPM */
static const char * fmslogo_16x16_xpm[] = {
"16 16 72 1",
" 	c None",
".	c #039540",
"+	c #008C3C",
"@	c #6DB875",
"#	c #84C888",
"$	c #208023",
"%	c #22973D",
"&	c #43B34A",
"*	c #008F3B",
"=	c #289940",
"-	c #4EA565",
";	c #8ACB8F",
">	c #157D28",
",	c #2C9E3D",
"'	c #56B45A",
")	c #3CA240",
"!	c #44B549",
"~	c #139B41",
"{	c #009440",
"]	c #379F43",
"^	c #89CA8F",
"/	c #159031",
"(	c #2AA343",
"_	c #6BC26B",
":	c #A5EE9C",
"<	c #6DC26C",
"[	c #34A03C",
"}	c #31AA45",
"|	c #2AA645",
"1	c #00913D",
"2	c #2C9648",
"3	c #0F8A36",
"4	c #3CAD47",
"5	c #6CC36B",
"6	c #9EE896",
"7	c #9EE996",
"8	c #A0EA98",
"9	c #58B55C",
"0	c #289D3B",
"a	c #30A740",
"b	c #078B39",
"c	c #3C9B5A",
"d	c #009A42",
"e	c #25933D",
"f	c #6CC46C",
"g	c #9DE896",
"h	c #A2EC9A",
"i	c #91DD8B",
"j	c #4BAB4C",
"k	c #3FAA42",
"l	c #11933D",
"m	c #40A642",
"n	c #31A741",
"o	c #6CC26B",
"p	c #9FE997",
"q	c #A8F09F",
"r	c #7ACF77",
"s	c #3CA13F",
"t	c #43A744",
"u	c #00893C",
"v	c #6AC06A",
"w	c #A6EE9D",
"x	c #68C168",
"y	c #31A040",
"z	c #38A54B",
"A	c #009441",
"B	c #6AC16A",
"C	c #9EE997",
"D	c #7BCD77",
"E	c #41A847",
"F	c #2D9C3C",
"G	c #169130",
"  .+@#          ",
" $%&*=.-;       ",
" >,')!~{]+^     ",
" /(_:<[}|12+    ",
"$34567890.abc   ",
".defg88hijk+l+  ",
"mnmog888pqrst&+ ",
"mu4vg888886wxyz+",
"2AmBg88888CqDEFG",
"mnmog888pqrst&+ ",
"2dmfg88hijk+l+  ",
"m34567890.abc   ",
" /(_:<[}|12+    ",
" >,')!~{]+^     ",
" $%&*=.-;       ",
"  .+@#          "};
