/* XPM */
static const char * fmslogo_20x20_xpm[] = {
"20 20 209 2",
"  	c None",
". 	c #124E14",
"+ 	c #0D551B",
"@ 	c #125318",
"# 	c #115417",
"$ 	c #114F16",
"% 	c #0A5A1F",
"& 	c #2B953C",
"* 	c #37A040",
"= 	c #008F3E",
"- 	c #1B822B",
"; 	c #147624",
"> 	c #0D6D26",
", 	c #135518",
"' 	c #124F17",
") 	c #125017",
"! 	c #188231",
"~ 	c #40B247",
"{ 	c #43AB49",
"] 	c #108030",
"^ 	c #3CAE48",
"/ 	c #0B9840",
"( 	c #009B44",
"_ 	c #12882D",
": 	c #1C7621",
"< 	c #185D18",
"[ 	c #096926",
"} 	c #00873B",
"| 	c #3AA842",
"1 	c #88D783",
"2 	c #78CB76",
"3 	c #3DA344",
"4 	c #22993E",
"5 	c #058237",
"6 	c #2C9D3A",
"7 	c #0A9437",
"8 	c #03903D",
"9 	c #187222",
"0 	c #145C1A",
"a 	c #145E1B",
"b 	c #34A542",
"c 	c #3CAB43",
"d 	c #84D580",
"e 	c #A0EA98",
"f 	c #9BE693",
"g 	c #6DC36C",
"h 	c #339C3A",
"i 	c #41B249",
"j 	c #009240",
"k 	c #029941",
"l 	c #0F872E",
"m 	c #208925",
"n 	c #17681D",
"o 	c #157828",
"p 	c #33AA45",
"q 	c #85D581",
"r 	c #9DE895",
"s 	c #9FE997",
"t 	c #A1EB99",
"u 	c #9AE694",
"v 	c #51AE54",
"w 	c #168836",
"x 	c #0B8237",
"y 	c #3BAE45",
"z 	c #009640",
"A 	c #009440",
"B 	c #176D1F",
"C 	c #0E5F20",
"D 	c #01943E",
"E 	c #048D3D",
"F 	c #3BA941",
"G 	c #84D480",
"H 	c #90DD8A",
"I 	c #3DA143",
"J 	c #41AE45",
"K 	c #00853A",
"L 	c #007E37",
"M 	c #22912C",
"N 	c #1A7722",
"O 	c #115A1C",
"P 	c #048636",
"Q 	c #0E8035",
"R 	c #000000",
"S 	c #74C872",
"T 	c #38913D",
"U 	c #061609",
"V 	c #010301",
"W 	c #0E9136",
"X 	c #167926",
"Y 	c #145818",
"Z 	c #259732",
"` 	c #3AAB43",
" .	c #85D681",
"..	c #9EE996",
"+.	c #90D389",
"@.	c #40A546",
"#.	c #048537",
"$.	c #168730",
"%.	c #1A7B22",
"&.	c #12601E",
"*.	c #00893B",
"=.	c #8BCB84",
"-.	c #7ABC75",
";.	c #58B45B",
">.	c #31A240",
",.	c #309E3B",
"'.	c #279B2F",
").	c #11631F",
"!.	c #008036",
"~.	c #9DE795",
"{.	c #92D38A",
"].	c #4BB94F",
"^.	c #1D8C44",
"/.	c #66B96C",
"(.	c #15601B",
"_.	c #249436",
":.	c #36A441",
"<.	c #070B07",
"[.	c #62AA61",
"}.	c #09943E",
"|.	c #199444",
"1.	c #7CC681",
"2.	c #15651E",
"3.	c #0F973C",
"4.	c #18943D",
"5.	c #369E3D",
"6.	c #A3ED9B",
"7.	c #9AE594",
"8.	c #5EB960",
"9.	c #309939",
"0.	c #24943D",
"a.	c #289A3E",
"b.	c #309D45",
"c.	c #5AAD6C",
"d.	c #116D24",
"e.	c #00943F",
"f.	c #008639",
"g.	c #3CA942",
"h.	c #84D681",
"i.	c #79CB76",
"j.	c #359E3D",
"k.	c #3DAE47",
"l.	c #38AC45",
"m.	c #00923F",
"n.	c #048F3C",
"o.	c #73C07A",
"p.	c #12802B",
"q.	c #2CA041",
"r.	c #3BAB44",
"s.	c #85D580",
"t.	c #9EE896",
"u.	c #A8F09F",
"v.	c #81D17D",
"w.	c #43A84A",
"x.	c #2CA03D",
"y.	c #079841",
"z.	c #099540",
"A.	c #2DA23A",
"B.	c #0D8B3B",
"C.	c #399857",
"D.	c #1B8025",
"E.	c #1A9F3F",
"F.	c #38A742",
"G.	c #A2EB99",
"H.	c #92DE8B",
"I.	c #53B055",
"J.	c #34A33F",
"K.	c #3AAF47",
"L.	c #34AD46",
"M.	c #00923E",
"N.	c #008437",
"O.	c #52B25B",
"P.	c #88CD8A",
"Q.	c #197823",
"R.	c #007937",
"S.	c #38A842",
"T.	c #88D884",
"U.	c #5AB45C",
"V.	c #3AA442",
"W.	c #3FB045",
"X.	c #059740",
"Y.	c #009340",
"Z.	c #259836",
"`.	c #329C49",
" +	c #4DA662",
".+	c #8BCC90",
"++	c #1B7621",
"@+	c #209029",
"#+	c #41B247",
"$+	c #38A640",
"%+	c #28A342",
"&+	c #2DA644",
"*+	c #39AD41",
"=+	c #008937",
"-+	c #007F34",
";+	c #65B66F",
">+	c #89CD8E",
",+	c #0D7928",
"'+	c #3EAC4A",
")+	c #4CB555",
"!+	c #0E9040",
"~+	c #15873F",
"{+	c #6EC271",
"]+	c #76C17C",
"^+	c #8BCD8F",
"/+	c #64BB6B",
"(+	c #74C07C",
"_+	c #79C27F",
":+	c #7FC484",
"    . + @ # $                           ",
"    % & * = - ; > , '                   ",
"  ) ! ~ { ] ^ / ( _ : <                 ",
"  [ } | 1 2 3 4 5 6 7 8 9 0             ",
"  a b c d e f g h i j k l m n           ",
"  o p c q r s t u v w x y z A B         ",
"C D E F G r e e e e H I J K L M N       ",
"O P Q R R R e R e e s R S T U V W X     ",
"Y Z ` R  .r e R R e R R ..R +.@.#.$.%.  ",
"&.A *.R R r e R e R e R e =.R -.;.>.,.'.",
").= !.R G ~.e R e e e R e e {.R @.].^./.",
"(._.:.R G ~.e R e e e R e <.R [.}.|.1.  ",
"2.3.4.5. .r e e e s 6.7.8.9.0.a.b.c.    ",
"d.e.f.g.h.r e e t s i.j.k.l.m.n.o.      ",
"  p.q.r.s.r t.u.v.w.x.y.z.A.B.C.        ",
"  D.E.F.d G.H.I.J.K.L.M.N.O.P.          ",
"  Q.R.S.T.U.V.W.X.Y.Z.`. +.+            ",
"  ++@+#+$+%+&+*+=+-+;+>+                ",
"    ,+'+)+!+~+{+]+^+                    ",
"      /+(+_+:+                          "};
