/* XPM */
static const char * fmslogo_24x24_xpm[] = {
"24 24 303 2",
"  	c None",
". 	c #114F16",
"+ 	c #105219",
"@ 	c #135118",
"# 	c #125217",
"$ 	c #124F16",
"% 	c #125017",
"& 	c #0B6425",
"* 	c #1F8B39",
"= 	c #2C8935",
"- 	c #058435",
"; 	c #117328",
"> 	c #16641A",
", 	c #12621F",
"' 	c #11591A",
") 	c #125016",
"! 	c #135014",
"~ 	c #2F9438",
"{ 	c #3EAF46",
"] 	c #38A943",
"^ 	c #008139",
"/ 	c #188D3A",
"( 	c #31A43B",
"_ 	c #00933E",
": 	c #018C3C",
"< 	c #167123",
"[ 	c #145E1B",
"} 	c #125418",
"| 	c #115117",
"1 	c #058838",
"2 	c #148E3B",
"3 	c #3BA840",
"4 	c #64BD64",
"5 	c #3A9E42",
"6 	c #3FAD44",
"7 	c #219C40",
"8 	c #00923F",
"9 	c #00883C",
"0 	c #1A922E",
"a 	c #1E912A",
"b 	c #187C25",
"c 	c #15601B",
"d 	c #125518",
"e 	c #115B1D",
"f 	c #027E33",
"g 	c #178B39",
"h 	c #329F39",
"i 	c #99E492",
"j 	c #94E18F",
"k 	c #63BC65",
"l 	c #3BA340",
"m 	c #188D39",
"n 	c #1F923E",
"o 	c #3BAC42",
"p 	c #05943B",
"q 	c #009742",
"r 	c #0E8933",
"s 	c #1B7520",
"t 	c #155F1B",
"u 	c #115517",
"v 	c #2A9035",
"w 	c #3DB046",
"x 	c #319E3A",
"y 	c #92E08C",
"z 	c #9FE997",
"A 	c #A1EA99",
"B 	c #93E08D",
"C 	c #53AF56",
"D 	c #36A23D",
"E 	c #3BAD47",
"F 	c #009240",
"G 	c #039B42",
"H 	c #007F37",
"I 	c #239729",
"J 	c #1B8527",
"K 	c #17691D",
"L 	c #13611C",
"M 	c #2C9E3E",
"N 	c #3CAF45",
"O 	c #9EE896",
"P 	c #A0EA98",
"Q 	c #A4EE9C",
"R 	c #7FD17D",
"S 	c #42A448",
"T 	c #158838",
"U 	c #007E36",
"V 	c #2C9E40",
"W 	c #28A642",
"X 	c #009540",
"Y 	c #028F3C",
"Z 	c #186E1F",
"` 	c #048938",
" .	c #239C40",
"..	c #339E38",
"+.	c #93DF8C",
"@.	c #9DE896",
"#.	c #9EE997",
"$.	c #72C66E",
"%.	c #3CA043",
"&.	c #38A940",
"*.	c #2AA544",
"=.	c #008C3C",
"-.	c #00863A",
";.	c #18872B",
">.	c #1A7521",
",.	c #17681D",
"'.	c #0F581C",
").	c #008D3C",
"!.	c #00913F",
"~.	c #0F7B33",
"{.	c #309836",
"].	c #92DF8C",
"^.	c #A3EC9A",
"/.	c #99E491",
"(.	c #61B962",
"_.	c #309839",
":.	c #208939",
"<.	c #187D34",
"[.	c #359D3A",
"}.	c #1F8D29",
"|.	c #197823",
"1.	c #135317",
"2.	c #157725",
"3.	c #168636",
"4.	c #3AA73F",
"5.	c #2A9233",
"6.	c #000000",
"7.	c #A3ED9A",
"8.	c #8EDC89",
"9.	c #33953C",
"0.	c #0B8D3C",
"a.	c #008639",
"b.	c #1C7B22",
"c.	c #145618",
"d.	c #17852B",
"e.	c #27A844",
"f.	c #2E993C",
"g.	c #2B9133",
"h.	c #A2EC9A",
"i.	c #76C874",
"j.	c #45A24A",
"k.	c #168732",
"l.	c #168938",
"m.	c #27962F",
"n.	c #187B21",
"o.	c #125B1C",
"p.	c #03923D",
"q.	c #009440",
"r.	c #088538",
"s.	c #288B31",
"t.	c #74C872",
"u.	c #3EAA44",
"v.	c #2D9D41",
"w.	c #2F9F38",
"x.	c #2B9E33",
"y.	c #125E1D",
"z.	c #01903D",
"A.	c #00903E",
"B.	c #078135",
"C.	c #2A8C31",
"D.	c #56B358",
"E.	c #37A642",
"F.	c #43B24D",
"G.	c #2C934D",
"H.	c #61B868",
"I.	c #155D1A",
"J.	c #17842D",
"K.	c #1D923C",
"L.	c #268D39",
"M.	c #2B8E33",
"N.	c #A5ED9C",
"O.	c #8DD788",
"P.	c #399F40",
"Q.	c #239A3C",
"R.	c #0E9742",
"S.	c #4CAC59",
"T.	c #79C37E",
"U.	c #165E1A",
"V.	c #218C2D",
"W.	c #28A241",
"X.	c #3EA641",
"Y.	c #2B9435",
"Z.	c #A6EF9E",
"`.	c #091109",
" +	c #071207",
".+	c #399D3D",
"++	c #3DA340",
"@+	c #239940",
"#+	c #00752E",
"$+	c #69B774",
"%+	c #13651F",
"&+	c #02913D",
"*+	c #009541",
"=+	c #158939",
"-+	c #329B38",
";+	c #A2EB9A",
">+	c #8BD986",
",+	c #48A84C",
"'+	c #3AA340",
")+	c #28983F",
"!+	c #058C3B",
"~+	c #078C3A",
"{+	c #4BB14F",
"]+	c #76C27C",
"^+	c #14671F",
"/+	c #038738",
"(+	c #008A3C",
"_+	c #35A33B",
":+	c #A8F09F",
"<+	c #8DDB88",
"[+	c #5EB85E",
"}+	c #339F3D",
"|+	c #249E40",
"1+	c #47B749",
"2+	c #1A9C42",
"3+	c #008A39",
"4+	c #5BAE6C",
"5+	c #89CC8E",
"6+	c #157623",
"7+	c #25983A",
"8+	c #3AAC46",
"9+	c #319E39",
"0+	c #93E08C",
"a+	c #61BA63",
"b+	c #3CA544",
"c+	c #32A540",
"d+	c #04953F",
"e+	c #009640",
"f+	c #16963D",
"g+	c #2DA03A",
"h+	c #138B3E",
"i+	c #379655",
"j+	c #90CF92",
"k+	c #1A7621",
"l+	c #1C9935",
"m+	c #2DA744",
"n+	c #80D17C",
"o+	c #3CA142",
"p+	c #38A742",
"q+	c #3DB047",
"r+	c #3AB047",
"s+	c #00913E",
"t+	c #0A8439",
"u+	c #5DB863",
"v+	c #86CC89",
"w+	c #92D196",
"x+	c #1A7421",
"y+	c #008A3B",
"z+	c #017F38",
"A+	c #2F9B37",
"B+	c #9AE693",
"C+	c #80D17D",
"D+	c #50AF54",
"E+	c #32A03C",
"F+	c #39AE46",
"G+	c #0B9941",
"H+	c #0E9841",
"I+	c #2BA03C",
"J+	c #19923B",
"K+	c #168E42",
"L+	c #53A966",
"M+	c #8DCF90",
"N+	c #188228",
"O+	c #259A34",
"P+	c #3DAB44",
"Q+	c #4DAE51",
"R+	c #3DA543",
"S+	c #3CAC44",
"T+	c #42B549",
"U+	c #219F42",
"V+	c #009642",
"W+	c #008E3D",
"X+	c #359C48",
"Y+	c #6CBF71",
"Z+	c #81C687",
"`+	c #8BCB90",
" @	c #1E8124",
".@	c #1A9236",
"+@	c #40B247",
"@@	c #42B349",
"#@	c #149B40",
"$@	c #008A3A",
"%@	c #38A944",
"&@	c #3FAB49",
"*@	c #178A42",
"=@	c #2E9150",
"-@	c #79C182",
";@	c #8CCC91",
">@	c #1F8526",
",@	c #1C9035",
"'@	c #3DA54E",
")@	c #56B75F",
"!@	c #309D51",
"~@	c #29934D",
"{@	c #6DBD75",
"]@	c #7BC581",
"^@	c #8BCC8C",
"/@	c #9CD89B",
"(@	c #45AD4A",
"_@	c #6DBE74",
":@	c #7AC480",
"<@	c #7EC683",
"[@	c #7EC384",
"      . + @ # $                                 ",
"    % & * = - ; > , ' )                         ",
"    ! ~ { ] ^ / ( _ : < [ }                     ",
"  | 1 2 3 4 5 6 7 8 9 0 a b c d                 ",
"  e f g h i j k l m n o p q r s t               ",
"  u v w x y z A B C D E F G H I J K             ",
"  L M N x B O P O Q R S T U V W X Y Z           ",
"  ` 8  ...+.@.P P #.Q O $.%.&.*.=.-.;.>.,.      ",
"'.).!.~.{.].@.P P P P P ^./.(._.:.<.[.}.|.      ",
"1.2.3.4.5.6.6.6.P 6.P P P 6.7.8.6.6.9.0.a.b.    ",
"c.d.e.f.g.6.@.P P 6.6.P 6.6.z 6.h.i.j.k.l.m.n.  ",
"o.p.q.r.s.6.6.P P 6.P 6.P 6.P 6.6.^.i t.u.v.w.x.",
"y.z.A.B.C.6.@.P P 6.P P P 6.P P 6.6.y D.E.F.G.H.",
"I.J.K.L.M.6.@.P P 6.P P P 6.O N.O.6.P.Q.R.S.T.  ",
"U.V.W.X.Y.6.@.P P 6.P P z 6.Z.`. +.+++@+#+$+    ",
"%+&+*+=+-+B @.P P P P ;+A >+,+'+)+!+~+{+]+      ",
"^+/+(+/ _+B @.P P #.:+<+[+}+|+1+2+*+3+4+5+      ",
"  6+7+8+9+0+@.z z ^.a+b+c+d+e+f+g+h+i+j+        ",
"  k+l+m+9+0+P z n+o+p+q+r+s+X t+u+v+w+          ",
"  x+y+z+A+B+C+D+E+F+G+H+I+J+K+L+M+              ",
"    N+O+P+Q+R+S+T+U+V+W+X+Y+Z+`+                ",
"     @.@+@@@#@$@%@&@*@=@-@;@                    ",
"    >@,@'@)@!@~@{@]@^@/@                        ",
"      (@_@:@<@[@                                "};
