/* XPM */
static const char * fmslogo_40x40_xpm[] = {
"40 40 652 2",
"  	c None",
". 	c #114F16",
"+ 	c #124E15",
"@ 	c #124F16",
"# 	c #13561A",
"$ 	c #06702C",
"% 	c #14591A",
"& 	c #135819",
"* 	c #145718",
"= 	c #145417",
"- 	c #135218",
"; 	c #125117",
"> 	c #125016",
", 	c #124E16",
"' 	c #0C6222",
") 	c #1A7D33",
"! 	c #0A7A33",
"~ 	c #34933A",
"{ 	c #328E36",
"] 	c #058C3A",
"^ 	c #048838",
"/ 	c #0E7227",
"( 	c #17691D",
"_ 	c #16631C",
": 	c #155D1A",
"< 	c #135116",
"[ 	c #135016",
"} 	c #145217",
"| 	c #0B6D2A",
"1 	c #37A041",
"2 	c #40B146",
"3 	c #3EB046",
"4 	c #249D40",
"5 	c #00913E",
"6 	c #00903E",
"7 	c #118837",
"8 	c #2A9931",
"9 	c #208A27",
"0 	c #0A8C35",
"a 	c #01913D",
"b 	c #087F31",
"c 	c #0F6621",
"d 	c #145919",
"e 	c #135217",
"f 	c #155918",
"g 	c #308E33",
"h 	c #3EAE45",
"i 	c #3EAF45",
"j 	c #3DAB44",
"k 	c #38A642",
"l 	c #078036",
"m 	c #007432",
"n 	c #1A8939",
"o 	c #40B447",
"p 	c #25A23F",
"q 	c #009540",
"r 	c #009640",
"s 	c #027F36",
"t 	c #1B7922",
"u 	c #186C1E",
"v 	c #155F1B",
"w 	c #135518",
"x 	c #0E5F20",
"y 	c #078837",
"z 	c #138E3C",
"A 	c #3CAF46",
"B 	c #3CAA44",
"C 	c #3CA342",
"D 	c #47A84C",
"E 	c #32983B",
"F 	c #349F40",
"G 	c #3EB147",
"H 	c #0A913D",
"I 	c #00943F",
"J 	c #028136",
"K 	c #20942A",
"L 	c #208D28",
"M 	c #1D7F24",
"N 	c #1A701F",
"O 	c #16611B",
"P 	c #125216",
"Q 	c #134C14",
"R 	c #048537",
"S 	c #009740",
"T 	c #00873A",
"U 	c #37A943",
"V 	c #3CA743",
"W 	c #41A146",
"X 	c #A2EC9A",
"Y 	c #73C771",
"Z 	c #36993D",
"` 	c #3AA341",
" .	c #3CAA43",
"..	c #2EA141",
"+.	c #00883A",
"@.	c #008539",
"#.	c #007331",
"$.	c #229A2D",
"%.	c #1E9A2D",
"&.	c #169431",
"*.	c #0E8E33",
"=.	c #098131",
"-.	c #176C1F",
";.	c #155E1B",
">.	c #135719",
",.	c #125017",
"'.	c #047931",
").	c #027833",
"!.	c #33A442",
"~.	c #3BA743",
"{.	c #41A046",
"].	c #A3EC9B",
"^.	c #A3EC9A",
"/.	c #94E18E",
"(.	c #5EB75F",
"_.	c #349A3B",
":.	c #3CA642",
"<.	c #24953C",
"[.	c #0A7B34",
"}.	c #20903B",
"|.	c #36A843",
"1.	c #41B446",
"2.	c #05933D",
"3.	c #009641",
"4.	c #16862B",
"5.	c #1C7A23",
"6.	c #18691E",
"7.	c #135918",
"8.	c #17671D",
"9.	c #127B31",
"0.	c #39AB44",
"a.	c #3FB247",
"b.	c #3BA742",
"c.	c #A0EA98",
"d.	c #93DF8D",
"e.	c #44A349",
"f.	c #399F40",
"g.	c #3CA843",
"h.	c #3FB146",
"i.	c #00923F",
"j.	c #009440",
"k.	c #068535",
"l.	c #229428",
"m.	c #1E8625",
"n.	c #1A7420",
"o.	c #16641C",
"p.	c #145B19",
"q.	c #135418",
"r.	c #1B7422",
"s.	c #3BA942",
"t.	c #3FB347",
"u.	c #3FB147",
"v.	c #A1EA99",
"w.	c #9FE997",
"x.	c #80D07C",
"y.	c #3B9C41",
"z.	c #369F3E",
"A.	c #2AA040",
"B.	c #008E3E",
"C.	c #008E3D",
"D.	c #20982C",
"E.	c #23982A",
"F.	c #1C8C29",
"G.	c #0D7E2D",
"H.	c #18691D",
"I.	c #15601A",
"J.	c #23832A",
"K.	c #3EAD45",
"L.	c #A1EB99",
"M.	c #A4ED9B",
"N.	c #63BA64",
"O.	c #3C9F42",
"P.	c #2E973C",
"Q.	c #0D8237",
"R.	c #008639",
"S.	c #00893B",
"T.	c #30A241",
"U.	c #3BB045",
"V.	c #119837",
"W.	c #00933F",
"X.	c #0D822F",
"Y.	c #196E1F",
"Z.	c #078132",
"`.	c #06933C",
" +	c #038D3C",
".+	c #2BA141",
"++	c #3BA642",
"@+	c #99E593",
"#+	c #54AF57",
"$+	c #349A3C",
"%+	c #2F993E",
"&+	c #097431",
"*+	c #37A944",
"=+	c #33AB45",
"-+	c #019540",
";+	c #008F3D",
">+	c #09782D",
",+	c #197220",
"'+	c #10581B",
")+	c #009841",
"!+	c #108E3C",
"~+	c #3DAF46",
"{+	c #3AA542",
"]+	c #409F45",
"^+	c #A3ED9B",
"/+	c #A5EE9D",
"(+	c #84D380",
"_+	c #4CAA50",
":+	c #369E3D",
"<+	c #3BA843",
"[+	c #3DAE45",
"}+	c #39AD45",
"|+	c #02913E",
"1+	c #008439",
"2+	c #0F7E2B",
"3+	c #1E8626",
"4+	c #1A7521",
"5+	c #176A1E",
"6+	c #0A6B27",
"7+	c #009741",
"8+	c #038237",
"9+	c #38A03F",
"0+	c #3C9A42",
"a+	c #77CA75",
"b+	c #3A9C40",
"c+	c #39A241",
"d+	c #3CA943",
"e+	c #077D35",
"f+	c #017D35",
"g+	c #007D35",
"h+	c #006D2F",
"i+	c #329F38",
"j+	c #209128",
"k+	c #1E8726",
"l+	c #1A7821",
"m+	c #076C29",
"n+	c #008C3C",
"o+	c #008438",
"p+	c #07712F",
"q+	c #35993D",
"r+	c #389F3F",
"s+	c #3B9A41",
"t+	c #A2EB9A",
"u+	c #98E491",
"v+	c #6ABF6A",
"w+	c #33973A",
"x+	c #32973C",
"y+	c #2D913A",
"z+	c #298C39",
"A+	c #2B8C39",
"B+	c #389C3E",
"C+	c #2E9736",
"D+	c #219029",
"E+	c #12872E",
"F+	c #197923",
"G+	c #196F1F",
"H+	c #165B19",
"I+	c #107929",
"J+	c #047F35",
"K+	c #0B7832",
"L+	c #36A03F",
"M+	c #359D3C",
"N+	c #389D3F",
"O+	c #3B9B41",
"P+	c #94E08D",
"Q+	c #4BA64F",
"R+	c #329339",
"S+	c #33953A",
"T+	c #379A3E",
"U+	c #35953B",
"V+	c #03893B",
"W+	c #0A8332",
"X+	c #1B7A22",
"Y+	c #125116",
"Z+	c #16601B",
"`+	c #1D8123",
" @	c #35A83F",
".@	c #3CAD44",
"+@	c #39A940",
"@@	c #359F3C",
"#@	c #252504",
"$@	c #86C179",
"%@	c #88C47C",
"&@	c #415326",
"*@	c #282B08",
"=@	c #2C300C",
"-@	c #3C5123",
";@	c #358334",
">@	c #329439",
",@	c #37993E",
"'@	c #389B3E",
")@	c #038438",
"!@	c #007834",
"~@	c #1B8527",
"{@	c #1B7B22",
"]@	c #17641C",
"^@	c #178629",
"/@	c #189B3E",
"(@	c #2DA543",
"_@	c #38A340",
":@	c #369B3C",
"<@	c #668D52",
"[@	c #658C52",
"}@	c #364219",
"|@	c #83BC75",
"1@	c #7FB772",
"2@	c #364118",
"3@	c #71C36F",
"4@	c #3A9740",
"5@	c #34983B",
"6@	c #198537",
"7@	c #087C34",
"8@	c #1D8C38",
"9@	c #299C30",
"0@	c #1F8925",
"a@	c #1B7C23",
"b@	c #125217",
"c@	c #18671C",
"d@	c #058F3A",
"e@	c #017E36",
"f@	c #218335",
"g@	c #45592C",
"h@	c #45582B",
"i@	c #364119",
"j@	c #2C310E",
"k@	c #86C27A",
"l@	c #9EE997",
"m@	c #57AF58",
"n@	c #389C3F",
"o@	c #3CA742",
"p@	c #18882F",
"q@	c #208E28",
"r@	c #1E8926",
"s@	c #135317",
"t@	c #097F30",
"u@	c #008839",
"v@	c #1E8837",
"w@	c #587640",
"x@	c #292B09",
"y@	c #99DF8F",
"z@	c #587741",
"A@	c #689054",
"B@	c #577640",
"C@	c #8AC77E",
"D@	c #92DF8B",
"E@	c #52B156",
"F@	c #38A944",
"G@	c #2F9C43",
"H@	c #3FAF44",
"I@	c #30A339",
"J@	c #34A43D",
"K@	c #135519",
"L@	c #057F33",
"M@	c #008838",
"N@	c #1F8937",
"O@	c #79AC69",
"P@	c #61864C",
"Q@	c #79AD6A",
"R@	c #84BE77",
"S@	c #526D3B",
"T@	c #292C09",
"U@	c #6A9357",
"V@	c #9AE693",
"W@	c #6EC36C",
"X@	c #379E3E",
"Y@	c #3DAB45",
"Z@	c #45B64C",
"`@	c #259B46",
" #	c #0F823B",
".#	c #5EB864",
"+#	c #186C1F",
"@#	c #038738",
"##	c #008E3C",
"$#	c #008738",
"%#	c #007531",
"&#	c #218637",
"*#	c #252706",
"=#	c #2A2E0B",
"-#	c #99DF90",
";#	c #8BC97F",
">#	c #7FD37C",
",#	c #3FA345",
"'#	c #3EAA43",
")#	c #40B048",
"!#	c #4EB855",
"~#	c #48AA57",
"{#	c #3A9653",
"]#	c #76C27B",
"^#	c #135718",
"/#	c #196D1F",
"(#	c #18852B",
"_#	c #0A7E35",
":#	c #1D8A38",
"<#	c #2B903A",
"[#	c #34953B",
"}#	c #405125",
"|#	c #415226",
"1#	c #3A461C",
"2#	c #7FB670",
"3#	c #82BA74",
"4#	c #323F16",
"5#	c #4FB152",
"6#	c #349C3C",
"7#	c #389E3F",
"8#	c #25993E",
"9#	c #08953F",
"0#	c #46AC53",
"a#	c #6EBF73",
"b#	c #7FC884",
"c#	c #145819",
"d#	c #238E2B",
"e#	c #41B348",
"f#	c #39A540",
"g#	c #379D3E",
"h#	c #62874E",
"i#	c #62884E",
"j#	c #445729",
"k#	c #2F4516",
"l#	c #338933",
"m#	c #1B963E",
"n#	c #00893A",
"o#	c #1D8643",
"p#	c #7CC581",
"q#	c #80C786",
"r#	c #145A1A",
"s#	c #1F8C2A",
"t#	c #139A41",
"u#	c #1F9A3F",
"v#	c #3BA541",
"w#	c #39A240",
"x#	c #5EBB5F",
"y#	c #3CA243",
"z#	c #399E3F",
"A#	c #3B9E3F",
"B#	c #389E3E",
"C#	c #3DAA44",
"D#	c #2A9B3F",
"E#	c #047E34",
"F#	c #027332",
"G#	c #6DBA77",
"H#	c #82C888",
"I#	c #155C1A",
"J#	c #127325",
"K#	c #02933D",
"L#	c #128B3A",
"M#	c #369C3F",
"N#	c #3D9D43",
"O#	c #83D37F",
"P#	c #3FA045",
"Q#	c #138A39",
"R#	c #07893A",
"S#	c #018538",
"T#	c #36A742",
"U#	c #3EAB45",
"V#	c #5EB863",
"W#	c #72BF7A",
"X#	c #85C98A",
"Y#	c #097C2F",
"Z#	c #007F36",
"`#	c #36A442",
" $	c #39A340",
".$	c #41A247",
"+$	c #95E08E",
"@$	c #47A54C",
"#$	c #229C40",
"$$	c #00923E",
"%$	c #0D8A3A",
"&$	c #5EB962",
"*$	c #78C37D",
"=$	c #84C989",
"-$	c #136E23",
";$	c #00913F",
">$	c #008F3E",
",$	c #098036",
"'$	c #3EAF46",
")$	c #41A347",
"!$	c #96E28F",
"~$	c #60B861",
"{$	c #359A3C",
"]$	c #3CA541",
"^$	c #30A442",
"/$	c #32A844",
"($	c #1B9D41",
"_$	c #007932",
":$	c #60B16E",
"<$	c #18681D",
"[$	c #037831",
"}$	c #017C34",
"|$	c #027834",
"1$	c #1B8A39",
"2$	c #78CB76",
"3$	c #3AA241",
"4$	c #3BA943",
"5$	c #2EA743",
"6$	c #178F3A",
"7$	c #01883A",
"8$	c #008137",
"9$	c #308E4F",
"0$	c #8BCE8F",
"a$	c #17691E",
"b$	c #1A7922",
"c$	c #1F8F2A",
"d$	c #37A942",
"e$	c #3DB146",
"f$	c #A4ED9C",
"g$	c #7DCE7A",
"h$	c #45A449",
"i$	c #369E3E",
"j$	c #09923E",
"k$	c #018D3C",
"l$	c #1C9135",
"m$	c #31A438",
"n$	c #3AA34A",
"o$	c #208A44",
"p$	c #2D8C4D",
"q$	c #89CB8D",
"r$	c #1B7621",
"s$	c #1F8C27",
"t$	c #2CA43C",
"u$	c #36AD45",
"v$	c #40B247",
"w$	c #90DE8A",
"x$	c #55B058",
"y$	c #359B3C",
"z$	c #3DAD45",
"A$	c #3EB146",
"B$	c #41B448",
"C$	c #0E953E",
"D$	c #00863A",
"E$	c #23923B",
"F$	c #4FB356",
"G$	c #6CBF72",
"H$	c #86CB89",
"I$	c #90D093",
"J$	c #1A7320",
"K$	c #16882C",
"L$	c #02953F",
"M$	c #028F3D",
"N$	c #299C3F",
"O$	c #5BB45D",
"P$	c #399D3F",
"Q$	c #3AA441",
"R$	c #29A342",
"S$	c #37AD46",
"T$	c #25A041",
"U$	c #00903D",
"V$	c #068037",
"W$	c #58B461",
"X$	c #75C27A",
"Y$	c #86CA8B",
"Z$	c #8BCC90",
"`$	c #1A711F",
" %	c #0C8330",
".%	c #1F8F3B",
"+%	c #3DA843",
"@%	c #40A046",
"#%	c #73C671",
"$%	c #3FB045",
"%%	c #29A643",
"&%	c #08923D",
"*%	c #24993C",
"=%	c #2FA53B",
"-%	c #087F35",
";%	c #088137",
">%	c #027A34",
",%	c #268947",
"'%	c #7FC684",
")%	c #89CC8F",
"!%	c #8CCC91",
"~%	c #187C25",
"{%	c #027933",
"]%	c #027430",
"^%	c #39AA44",
"/%	c #41A246",
"(%	c #91DE8B",
"_%	c #008D3D",
":%	c #148934",
"<%	c #3AA943",
"[%	c #50B255",
"}%	c #67BC6D",
"|%	c #7DC781",
"1%	c #88CC8D",
"2%	c #1E8927",
"3%	c #24992D",
"4%	c #3DAC45",
"5%	c #3BA442",
"6%	c #35A743",
"7%	c #40B246",
"8%	c #40B348",
"9%	c #35AA45",
"0%	c #299246",
"a%	c #66BC6C",
"b%	c #78C37E",
"c%	c #84CA8A",
"d%	c #1B7722",
"e%	c #1E8526",
"f%	c #1E942E",
"g%	c #3DB046",
"h%	c #3DAE46",
"i%	c #2FA843",
"j%	c #08913D",
"k%	c #2FA342",
"l%	c #3EB145",
"m%	c #3CAE44",
"n%	c #1D943E",
"o%	c #008136",
"p%	c #027D36",
"q%	c #117E3C",
"r%	c #54A766",
"s%	c #85CA8A",
"t%	c #8BCC8F",
"u%	c #8DCC92",
"v%	c #1C8025",
"w%	c #1F8E3B",
"x%	c #45B74B",
"y%	c #45B74C",
"z%	c #48B84D",
"A%	c #098F3D",
"B%	c #1E8B3C",
"C%	c #4DB254",
"D%	c #59B65F",
"E%	c #51A763",
"F%	c #76C07E",
"G%	c #84C88A",
"H%	c #8BCB8F",
"I%	c #1E8425",
"J%	c #1A8C2B",
"K%	c #3CA946",
"L%	c #40A852",
"M%	c #0C7835",
"N%	c #5DBD64",
"O%	c #43A856",
"P%	c #007A34",
"Q%	c #097A37",
"R%	c #50A761",
"S%	c #77C47C",
"T%	c #7DC681",
"U%	c #82C887",
"V%	c #8ACC8F",
"W%	c #2BA034",
"X%	c #4EB256",
"Y%	c #6CBE74",
"Z%	c #74C179",
"`%	c #78C47D",
" &	c #7BC480",
".&	c #83CA88",
"+&	c #87CA8C",
"@&	c #40AA48",
"#&	c #5EB965",
"$&	c #73C179",
"%&	c #7CC681",
"&&	c #7EC784",
"          . . + . . . .                                                         ",
"        . @ # $ % & * = - ; > > .                                               ",
"        , ' ) ! ~ { ] ^ / ( _ : * < [ @                                         ",
"      . } | 1 2 3 4 5 6 7 8 9 0 a b c d e >                                     ",
"      , f g h i j k l m n o p q r q s t u v w e                                 ",
"      x y z A B C D E F 2 G H q r I J K L M N O w P                             ",
"    Q R S T U V W X Y Z `  ...+.6 @.#.$.%.&.*.=.-.;.>.                          ",
"    ,.'.@.).!.~.{.].^./.(._.:.<.[.}.|.1.2.3.3.6 4.5.6.;.7.                      ",
"    ; 8.9.0.a.b.{.].c.c.X d.e.f.g.i h.G i.r r j.k.l.m.n.o.p.                    ",
"  . q.r.s.t.u.b.{.].c.c.c.v.w.x.y.z.B A.B.r r C.m D.E.F.G.H.I.                  ",
"  @ f J.K.t.u.b.{.].c.c.c.c.c.L.M.N.O.P.Q.R.S.).T.U.V.r W.X.Y._                 ",
"  @ Z.`. +.+a.++{.].c.c.c.c.c.c.c.c.@+#+$+%+&+*+t.=+-+r r ;+>+,+8.              ",
"  '+)+r I !+~+{+]+^+c.c.c.c.c.c.c.c.c./+(+_+:+<+[+}+|+q W.1+2+3+4+5+            ",
"  6+7+r j.8+k 9+0+^+c.c.c.c.c.c.c.c.c.c.c.].a+b+c+d+e+f+g+h+i+j+k+l+u           ",
"  m+n+W.o+p+q+r+s+^+c.c.c.c.c.c.c.c.c.c.c.c.t+u+v+w+x+y+z+A+B+C+D+E+F+G+        ",
"@ H+I+J+K+L+M+N+O+^+c.c.c.c.c.c.c.c.c.c.c.c.c.c.^+P+Q+R+S+T+T+U+V+i.W+X+,+      ",
"Y+Z+`+ @.@+@@@#@#@#@#@#@c.#@#@#@$@c.$@#@#@#@c.%@&@*@=@-@;@>@,@'@)@;+!@~@{@4+    ",
"; ]@^@/@(@_@:@#@#@^+c.c.c.#@#@#@<@c.[@#@#@#@c.}@#@|@1@#@2@3@4@5@6@7@8@9@0@a@    ",
"b@c@d@r 6 e@f@#@#@^+c.c.c.#@#@2@g@c.h@i@#@#@c.j@#@k@c.c.c.c.l@m@n@o@h *+p@q@r@  ",
"s@t@7+r W.u@v@#@#@#@#@#@c.#@#@w@x@y@x@z@#@#@c.A@#@x@B@C@c.c.c.^.D@E@ .F@G@H@I@J@",
"K@L@I r i.M@N@#@#@^+c.c.c.#@#@O@#@P@#@Q@#@#@c.c.R@S@T@#@U@c.L.V@W@X@Y@Z@`@ #.#  ",
"w +#@###$#%#&##@#@^+c.c.c.#@#@y@*#=#*#-##@#@c.c.c.c.;##@=#M.>#,#r+'#)#!#~#{#]#  ",
"^#/#(#_#:#<#[##@#@^+c.c.c.#@#@c.}##@|#c.#@#@c.1##@2#3##@4#5#6#7#8#9#S.0#a#b#    ",
"c#/#d#e#i f#g##@#@^+c.c.c.#@#@c.h##@i#c.#@#@c.C@j#=#*@k#l#7#7#9+m#W.n#o#p#q#    ",
"r#/#s#t#u#v#r+w#0+^+c.c.c.c.c.c.c.c.c.c.c.c.c.c.M.x#y#r+z#A#B#C#D#E#F#G#H#      ",
"I#J#K#r 6 L#M#` N#^+c.c.c.c.c.c.c.c.c.c.c.c.w.O#P#X@r+P.Q#R#S#T#U#V#W#X#        ",
"  Y#r r j.Z#`# $.$].c.c.c.c.c.c.c.c.c.c.L.+$@$r+++j Y@#$6 i.$$%$&$*$=$          ",
"  -$;$I >$,$'$b.)$].c.c.c.c.c.c.c.c.X !$~${$]$^$/$o t.($q r W._$:$X#            ",
"  <$[$}$|$1$a.b..$].c.c.c.c.c.c.c.w.2$T+3$4$($I C.5$t.6$7$;+8$9$0$              ",
"  a$b$c$d$e$u.++{.].c.c.c.c.c.f$g$h$i$g.[+j$q r r k$l$m$n$o$p$q$                ",
"  a$r$s$t$u$v$b.{.].c.c.c.X w$x$y$o@z$A$B$C$r r r D$E$F$G$H$I$                  ",
"    J$K$L$M$N$<+{.].c.c.c.O$P$Q$Y@R$S$o o T$U$I 5 V$W$X$Y$Z$                    ",
"    `$ %i.T .%+%@%f$L.#%P#9+B $%%%j.W.&%*%=%-%;%>%,%'%)%!%                      ",
"    `$~%{%]%^%g./%(%@%r+g.[+a.u$-+r r _%:%<%[%}%|%1%!%                          ",
"      X+2%3%3 4%5%3$b.6%7%t.8%9%C.r j.T 0%a%b%c%Z$                              ",
"      d%e%f%g%h.h%h i%$$j%k%l%m%n%o%p%q%r%s%t%u%                                ",
"        v%!@w%x%y%z%A%I S.B%C%D%a%E%F%G%H%                                      ",
"        I%J%K%L%M%N%O%P%Q%R%S%T%U%q$V%                                          ",
"          W%X%a%Y%Z%`% &.&=$X#+&                                                ",
"          @&#&$&%&&&U%                                                          "};
